<svg width="641" height="418" viewBox="0 0 641 418" fill="none" xmlns="http://www.w3.org/2000/svg">
<rect width="641" height="418" fill="#ECECEC"/>
<rect x="50" y="108" width="202" height="202" rx="22" fill="#1B2A47"/>
<rect x="144" y="209" width="79" height="54.5818" rx="5.94455" fill="white"/>
<path d="M165.52 231.672C165.637 231.619 165.819 231.56 166.064 231.496C166.32 231.421 166.576 231.384 166.832 231.384C167.28 231.384 167.653 231.453 167.952 231.592C168.251 231.72 168.432 231.912 168.496 232.168C168.613 232.605 168.72 233.016 168.816 233.4C168.923 233.773 169.024 234.136 169.12 234.488C169.216 234.829 169.307 235.171 169.392 235.512C169.488 235.853 169.579 236.211 169.664 236.584H169.744C169.84 235.933 169.925 235.315 170 234.728C170.075 234.131 170.144 233.549 170.208 232.984C170.272 232.408 170.336 231.843 170.4 231.288C170.464 230.723 170.528 230.152 170.592 229.576C170.987 229.352 171.408 229.24 171.856 229.24C172.251 229.24 172.592 229.325 172.88 229.496C173.168 229.667 173.312 229.955 173.312 230.36C173.312 230.595 173.285 230.931 173.232 231.368C173.189 231.795 173.125 232.275 173.04 232.808C172.965 233.341 172.875 233.901 172.768 234.488C172.661 235.075 172.549 235.635 172.432 236.168C172.315 236.701 172.192 237.187 172.064 237.624C171.947 238.051 171.835 238.381 171.728 238.616C171.568 238.765 171.307 238.888 170.944 238.984C170.581 239.08 170.208 239.128 169.824 239.128C169.323 239.128 168.896 239.064 168.544 238.936C168.203 238.797 167.995 238.605 167.92 238.36C167.781 237.933 167.632 237.427 167.472 236.84C167.312 236.253 167.141 235.608 166.96 234.904C166.811 235.597 166.656 236.275 166.496 236.936C166.336 237.597 166.192 238.157 166.064 238.616C165.904 238.765 165.664 238.888 165.344 238.984C165.024 239.08 164.672 239.128 164.288 239.128C163.808 239.128 163.371 239.064 162.976 238.936C162.592 238.797 162.341 238.605 162.224 238.36C162.128 238.168 162.021 237.885 161.904 237.512C161.797 237.128 161.685 236.696 161.568 236.216C161.451 235.725 161.328 235.197 161.2 234.632C161.083 234.067 160.971 233.501 160.864 232.936C160.768 232.371 160.677 231.821 160.592 231.288C160.507 230.744 160.443 230.248 160.4 229.8C160.549 229.661 160.757 229.533 161.024 229.416C161.291 229.299 161.579 229.24 161.888 229.24C162.293 229.24 162.624 229.331 162.88 229.512C163.147 229.683 163.312 229.976 163.376 230.392C163.547 231.48 163.685 232.387 163.792 233.112C163.909 233.837 164 234.435 164.064 234.904C164.139 235.363 164.192 235.72 164.224 235.976C164.256 236.232 164.288 236.435 164.32 236.584H164.4C164.496 236.157 164.587 235.763 164.672 235.4C164.757 235.037 164.843 234.675 164.928 234.312C165.024 233.939 165.12 233.544 165.216 233.128C165.312 232.701 165.413 232.216 165.52 231.672ZM177.973 237.272C178.154 237.272 178.351 237.256 178.565 237.224C178.789 237.181 178.954 237.128 179.061 237.064V235.784L177.909 235.88C177.61 235.901 177.365 235.965 177.173 236.072C176.981 236.179 176.885 236.339 176.885 236.552C176.885 236.765 176.965 236.941 177.125 237.08C177.295 237.208 177.578 237.272 177.973 237.272ZM177.845 230.984C178.421 230.984 178.943 231.043 179.413 231.16C179.893 231.277 180.298 231.459 180.629 231.704C180.97 231.939 181.231 232.243 181.413 232.616C181.594 232.979 181.685 233.411 181.685 233.912V237.496C181.685 237.773 181.605 238.003 181.445 238.184C181.295 238.355 181.114 238.504 180.901 238.632C180.207 239.048 179.231 239.256 177.973 239.256C177.407 239.256 176.895 239.203 176.437 239.096C175.989 238.989 175.599 238.829 175.269 238.616C174.949 238.403 174.698 238.131 174.517 237.8C174.346 237.469 174.261 237.085 174.261 236.648C174.261 235.912 174.479 235.347 174.917 234.952C175.354 234.557 176.031 234.312 176.949 234.216L179.045 233.992V233.88C179.045 233.571 178.906 233.352 178.629 233.224C178.362 233.085 177.973 233.016 177.461 233.016C177.055 233.016 176.661 233.059 176.277 233.144C175.893 233.229 175.546 233.336 175.237 233.464C175.098 233.368 174.981 233.224 174.885 233.032C174.789 232.829 174.741 232.621 174.741 232.408C174.741 232.131 174.805 231.912 174.933 231.752C175.071 231.581 175.279 231.437 175.557 231.32C175.866 231.203 176.229 231.117 176.645 231.064C177.071 231.011 177.471 230.984 177.845 230.984ZM193.463 236.616C193.324 236.733 193.143 236.829 192.919 236.904C192.705 236.968 192.455 237 192.167 237C191.783 237 191.463 236.952 191.207 236.856C190.961 236.76 190.801 236.595 190.727 236.36C190.428 235.421 190.183 234.664 189.991 234.088C189.799 233.501 189.649 232.989 189.543 232.552H189.463C189.431 233.181 189.404 233.757 189.383 234.28C189.372 234.792 189.361 235.293 189.351 235.784C189.351 236.275 189.34 236.771 189.319 237.272C189.308 237.773 189.287 238.328 189.255 238.936C189.116 238.989 188.935 239.032 188.711 239.064C188.487 239.107 188.263 239.128 188.039 239.128C187.569 239.128 187.201 239.053 186.935 238.904C186.679 238.755 186.551 238.483 186.551 238.088L187.015 229.928C187.1 229.789 187.287 229.64 187.575 229.48C187.863 229.32 188.268 229.24 188.791 229.24C189.356 229.24 189.799 229.331 190.119 229.512C190.439 229.683 190.673 229.965 190.823 230.36C190.919 230.616 191.02 230.909 191.127 231.24C191.244 231.571 191.356 231.912 191.463 232.264C191.58 232.616 191.692 232.968 191.799 233.32C191.905 233.661 192.001 233.971 192.087 234.248H192.167C192.423 233.352 192.679 232.488 192.935 231.656C193.191 230.813 193.425 230.109 193.639 229.544C193.799 229.459 194.001 229.389 194.247 229.336C194.503 229.272 194.785 229.24 195.095 229.24C195.617 229.24 196.044 229.32 196.375 229.48C196.705 229.629 196.897 229.848 196.951 230.136C196.993 230.349 197.036 230.68 197.079 231.128C197.132 231.565 197.185 232.061 197.239 232.616C197.292 233.171 197.345 233.757 197.399 234.376C197.452 234.995 197.5 235.592 197.543 236.168C197.596 236.733 197.639 237.256 197.671 237.736C197.703 238.205 197.724 238.568 197.735 238.824C197.553 238.931 197.361 239.005 197.159 239.048C196.967 239.101 196.716 239.128 196.407 239.128C196.001 239.128 195.66 239.059 195.383 238.92C195.105 238.781 194.956 238.509 194.935 238.104C194.871 236.941 194.828 235.896 194.807 234.968C194.796 234.04 194.775 233.261 194.743 232.632H194.663C194.556 233.048 194.401 233.571 194.199 234.2C193.996 234.829 193.751 235.635 193.463 236.616ZM207.286 235.112C207.286 235.773 207.185 236.365 206.982 236.888C206.78 237.4 206.492 237.832 206.118 238.184C205.756 238.536 205.318 238.803 204.806 238.984C204.294 239.165 203.724 239.256 203.094 239.256C202.465 239.256 201.894 239.16 201.382 238.968C200.87 238.776 200.428 238.504 200.054 238.152C199.692 237.789 199.409 237.352 199.206 236.84C199.004 236.328 198.902 235.752 198.902 235.112C198.902 234.483 199.004 233.912 199.206 233.4C199.409 232.888 199.692 232.456 200.054 232.104C200.428 231.741 200.87 231.464 201.382 231.272C201.894 231.08 202.465 230.984 203.094 230.984C203.724 230.984 204.294 231.085 204.806 231.288C205.318 231.48 205.756 231.757 206.118 232.12C206.492 232.472 206.78 232.904 206.982 233.416C207.185 233.928 207.286 234.493 207.286 235.112ZM201.686 235.112C201.686 235.763 201.809 236.264 202.054 236.616C202.31 236.957 202.662 237.128 203.11 237.128C203.558 237.128 203.9 236.952 204.134 236.6C204.38 236.248 204.502 235.752 204.502 235.112C204.502 234.472 204.38 233.981 204.134 233.64C203.889 233.288 203.542 233.112 203.094 233.112C202.646 233.112 202.3 233.288 202.054 233.64C201.809 233.981 201.686 234.472 201.686 235.112Z" fill="#1B2A47"/>
<path d="M84 187C84 185.895 84.8954 185 86 185H104.769C106.458 185 107.386 186.964 106.314 188.269L97.5 199L87.5286 210.818C86.3262 212.243 84 211.393 84 209.528V187Z" fill="white"/>
<path d="M216 255C216 253.895 215.105 253 214 253H194.164C192.487 253 191.554 254.941 192.603 256.25L201.96 267.933L212.455 280.691C213.648 282.141 216 281.298 216 279.421V255Z" fill="white"/>
<rect x="76" y="139" width="79" height="54.5818" rx="5.94455" fill="white"/>
<path d="M92.104 159.592C92.2853 159.485 92.5573 159.384 92.92 159.288C93.2933 159.192 93.6667 159.144 94.04 159.144C94.5733 159.144 95.0427 159.224 95.448 159.384C95.864 159.533 96.1307 159.773 96.248 160.104C96.44 160.659 96.648 161.304 96.872 162.04C97.096 162.776 97.32 163.539 97.544 164.328C97.768 165.107 97.9867 165.88 98.2 166.648C98.4133 167.405 98.6 168.077 98.76 168.664C98.632 168.813 98.44 168.931 98.184 169.016C97.928 169.112 97.624 169.16 97.272 169.16C97.016 169.16 96.7973 169.139 96.616 169.096C96.4453 169.053 96.3013 168.989 96.184 168.904C96.0773 168.819 95.9867 168.707 95.912 168.568C95.848 168.429 95.7893 168.269 95.736 168.088L95.448 166.984H92.552C92.4667 167.304 92.3813 167.635 92.296 167.976C92.2107 168.317 92.1253 168.648 92.04 168.968C91.8907 169.021 91.7307 169.064 91.56 169.096C91.4 169.139 91.2027 169.16 90.968 169.16C90.424 169.16 90.0187 169.069 89.752 168.888C89.496 168.696 89.368 168.435 89.368 168.104C89.368 167.955 89.3893 167.805 89.432 167.656C89.4747 167.507 89.5227 167.331 89.576 167.128C89.6507 166.84 89.752 166.483 89.88 166.056C90.0187 165.629 90.168 165.171 90.328 164.68C90.488 164.179 90.6587 163.667 90.84 163.144C91.0213 162.621 91.192 162.131 91.352 161.672C91.512 161.203 91.656 160.787 91.784 160.424C91.9227 160.061 92.0293 159.784 92.104 159.592ZM94.024 161.656C93.8747 162.104 93.704 162.605 93.512 163.16C93.3307 163.704 93.1653 164.259 93.016 164.824H95C94.8507 164.248 94.696 163.688 94.536 163.144C94.3867 162.589 94.248 162.093 94.12 161.656H94.024ZM99.8953 161.224C99.8953 160.68 99.9859 160.216 100.167 159.832C100.359 159.437 100.615 159.117 100.935 158.872C101.255 158.616 101.629 158.429 102.055 158.312C102.493 158.195 102.957 158.136 103.447 158.136C104.237 158.136 104.818 158.243 105.191 158.456C105.565 158.659 105.751 159.011 105.751 159.512C105.751 159.725 105.703 159.917 105.607 160.088C105.522 160.259 105.426 160.387 105.319 160.472C105.117 160.419 104.903 160.376 104.679 160.344C104.466 160.301 104.215 160.28 103.927 160.28C103.469 160.28 103.111 160.36 102.855 160.52C102.599 160.669 102.471 160.936 102.471 161.32V161.832H105.095C105.159 161.949 105.218 162.099 105.271 162.28C105.335 162.451 105.367 162.643 105.367 162.856C105.367 163.229 105.282 163.501 105.111 163.672C104.951 163.832 104.733 163.912 104.455 163.912H102.615V168.984C102.509 169.016 102.338 169.048 102.103 169.08C101.879 169.112 101.645 169.128 101.399 169.128C101.165 169.128 100.951 169.112 100.759 169.08C100.578 169.048 100.423 168.984 100.295 168.888C100.167 168.792 100.066 168.664 99.9913 168.504C99.9273 168.333 99.8953 168.115 99.8953 167.848V161.224ZM110.491 169.256C109.862 169.256 109.275 169.171 108.731 169C108.198 168.819 107.728 168.552 107.323 168.2C106.928 167.848 106.614 167.405 106.379 166.872C106.155 166.339 106.043 165.715 106.043 165C106.043 164.296 106.155 163.693 106.379 163.192C106.614 162.68 106.918 162.264 107.291 161.944C107.664 161.613 108.091 161.373 108.571 161.224C109.051 161.064 109.542 160.984 110.043 160.984C110.608 160.984 111.12 161.069 111.579 161.24C112.048 161.411 112.448 161.645 112.779 161.944C113.12 162.243 113.382 162.6 113.563 163.016C113.755 163.432 113.851 163.885 113.851 164.376C113.851 164.739 113.75 165.016 113.547 165.208C113.344 165.4 113.062 165.523 112.699 165.576L108.747 166.168C108.864 166.52 109.104 166.787 109.467 166.968C109.83 167.139 110.246 167.224 110.715 167.224C111.152 167.224 111.563 167.171 111.947 167.064C112.342 166.947 112.662 166.813 112.907 166.664C113.078 166.771 113.222 166.92 113.339 167.112C113.456 167.304 113.515 167.507 113.515 167.72C113.515 168.2 113.291 168.557 112.843 168.792C112.502 168.973 112.118 169.096 111.691 169.16C111.264 169.224 110.864 169.256 110.491 169.256ZM110.043 162.968C109.787 162.968 109.563 163.011 109.371 163.096C109.19 163.181 109.04 163.293 108.923 163.432C108.806 163.56 108.715 163.709 108.651 163.88C108.598 164.04 108.566 164.205 108.555 164.376L111.291 163.928C111.259 163.715 111.142 163.501 110.939 163.288C110.736 163.075 110.438 162.968 110.043 162.968ZM118.888 160.984C119.325 160.984 119.752 161.048 120.168 161.176C120.595 161.293 120.963 161.475 121.272 161.72C121.592 161.507 121.949 161.331 122.344 161.192C122.749 161.053 123.235 160.984 123.8 160.984C124.205 160.984 124.6 161.037 124.984 161.144C125.379 161.251 125.725 161.421 126.024 161.656C126.333 161.88 126.579 162.184 126.76 162.568C126.941 162.941 127.032 163.4 127.032 163.944V168.984C126.925 169.016 126.755 169.048 126.52 169.08C126.296 169.112 126.061 169.128 125.816 169.128C125.581 169.128 125.368 169.112 125.176 169.08C124.995 169.048 124.84 168.984 124.712 168.888C124.584 168.792 124.483 168.664 124.408 168.504C124.344 168.333 124.312 168.115 124.312 167.848V164.024C124.312 163.704 124.221 163.475 124.04 163.336C123.859 163.187 123.613 163.112 123.304 163.112C123.155 163.112 122.995 163.149 122.824 163.224C122.653 163.288 122.525 163.357 122.44 163.432C122.451 163.475 122.456 163.517 122.456 163.56C122.456 163.592 122.456 163.624 122.456 163.656V168.984C122.339 169.016 122.163 169.048 121.928 169.08C121.704 169.112 121.475 169.128 121.24 169.128C121.005 169.128 120.792 169.112 120.6 169.08C120.419 169.048 120.264 168.984 120.136 168.888C120.008 168.792 119.907 168.664 119.832 168.504C119.768 168.333 119.736 168.115 119.736 167.848V164.024C119.736 163.704 119.635 163.475 119.432 163.336C119.24 163.187 119.005 163.112 118.728 163.112C118.536 163.112 118.371 163.144 118.232 163.208C118.093 163.261 117.976 163.315 117.88 163.368V168.984C117.773 169.016 117.603 169.048 117.368 169.08C117.144 169.112 116.909 169.128 116.664 169.128C116.429 169.128 116.216 169.112 116.024 169.08C115.843 169.048 115.688 168.984 115.56 168.888C115.432 168.792 115.331 168.664 115.256 168.504C115.192 168.333 115.16 168.115 115.16 167.848V163.016C115.16 162.728 115.219 162.499 115.336 162.328C115.464 162.157 115.635 161.997 115.848 161.848C116.211 161.592 116.659 161.384 117.192 161.224C117.736 161.064 118.301 160.984 118.888 160.984ZM132.019 167.272C132.201 167.272 132.398 167.256 132.611 167.224C132.835 167.181 133.001 167.128 133.107 167.064V165.784L131.955 165.88C131.657 165.901 131.411 165.965 131.219 166.072C131.027 166.179 130.931 166.339 130.931 166.552C130.931 166.765 131.011 166.941 131.171 167.08C131.342 167.208 131.625 167.272 132.019 167.272ZM131.891 160.984C132.467 160.984 132.99 161.043 133.459 161.16C133.939 161.277 134.345 161.459 134.675 161.704C135.017 161.939 135.278 162.243 135.459 162.616C135.641 162.979 135.731 163.411 135.731 163.912V167.496C135.731 167.773 135.651 168.003 135.491 168.184C135.342 168.355 135.161 168.504 134.947 168.632C134.254 169.048 133.278 169.256 132.019 169.256C131.454 169.256 130.942 169.203 130.483 169.096C130.035 168.989 129.646 168.829 129.315 168.616C128.995 168.403 128.745 168.131 128.563 167.8C128.393 167.469 128.307 167.085 128.307 166.648C128.307 165.912 128.526 165.347 128.963 164.952C129.401 164.557 130.078 164.312 130.995 164.216L133.091 163.992V163.88C133.091 163.571 132.953 163.352 132.675 163.224C132.409 163.085 132.019 163.016 131.507 163.016C131.102 163.016 130.707 163.059 130.323 163.144C129.939 163.229 129.593 163.336 129.283 163.464C129.145 163.368 129.027 163.224 128.931 163.032C128.835 162.829 128.787 162.621 128.787 162.408C128.787 162.131 128.851 161.912 128.979 161.752C129.118 161.581 129.326 161.437 129.603 161.32C129.913 161.203 130.275 161.117 130.691 161.064C131.118 161.011 131.518 160.984 131.891 160.984ZM137.331 159.064C137.331 158.659 137.464 158.317 137.731 158.04C138.008 157.763 138.371 157.624 138.819 157.624C139.267 157.624 139.624 157.763 139.891 158.04C140.168 158.317 140.307 158.659 140.307 159.064C140.307 159.469 140.168 159.811 139.891 160.088C139.624 160.365 139.267 160.504 138.819 160.504C138.371 160.504 138.008 160.365 137.731 160.088C137.464 159.811 137.331 159.469 137.331 159.064ZM140.179 168.984C140.061 169.005 139.885 169.032 139.651 169.064C139.427 169.107 139.197 169.128 138.963 169.128C138.728 169.128 138.515 169.112 138.323 169.08C138.141 169.048 137.987 168.984 137.859 168.888C137.731 168.792 137.629 168.664 137.555 168.504C137.491 168.333 137.459 168.115 137.459 167.848V161.336C137.576 161.315 137.747 161.288 137.971 161.256C138.205 161.213 138.44 161.192 138.674 161.192C138.909 161.192 139.117 161.208 139.299 161.24C139.491 161.272 139.651 161.336 139.779 161.432C139.907 161.528 140.003 161.661 140.067 161.832C140.141 161.992 140.179 162.205 140.179 162.472V168.984Z" fill="#1B2A47"/>
<path d="M275.76 194L285.6 168.24H290.48L300.24 194H295.76L293.2 187.36H282.84L280.28 194H275.76ZM283.52 184H292.48L288 172.2L283.52 184ZM303.891 194V178.44H301.131V175.04H303.891V172.72C303.891 170.827 304.411 169.307 305.451 168.16C306.518 166.987 308.091 166.4 310.171 166.4C310.944 166.4 311.651 166.467 312.291 166.6C312.931 166.707 313.518 166.867 314.051 167.08V170.2C313.224 169.907 312.384 169.76 311.531 169.76C310.278 169.76 309.411 169.987 308.931 170.44C308.451 170.893 308.211 171.667 308.211 172.76V175.04H313.171L312.971 178.44H308.211V194H303.891ZM325.339 194.4C322.032 194.4 319.472 193.587 317.659 191.96C315.845 190.333 314.939 187.84 314.939 184.48C314.939 181.44 315.712 179.04 317.259 177.28C318.805 175.52 321.152 174.64 324.299 174.64C327.179 174.64 329.339 175.4 330.779 176.92C332.245 178.413 332.979 180.347 332.979 182.72V186.24H319.099C319.312 188.08 319.979 189.347 321.099 190.04C322.219 190.733 323.925 191.08 326.219 191.08C327.179 191.08 328.165 190.987 329.179 190.8C330.192 190.613 331.072 190.373 331.819 190.08V193.28C330.965 193.653 329.979 193.933 328.859 194.12C327.765 194.307 326.592 194.4 325.339 194.4ZM319.099 183.4H329.139V182.08C329.139 180.773 328.779 179.76 328.059 179.04C327.339 178.293 326.125 177.92 324.419 177.92C322.392 177.92 320.992 178.36 320.219 179.24C319.472 180.12 319.099 181.507 319.099 183.4ZM337.223 194V175.04H341.223L341.423 177.04C342.356 176.293 343.383 175.707 344.503 175.28C345.623 174.853 346.823 174.64 348.103 174.64C349.463 174.64 350.516 174.867 351.263 175.32C352.036 175.747 352.623 176.347 353.023 177.12C353.903 176.4 354.916 175.813 356.063 175.36C357.21 174.88 358.583 174.64 360.183 174.64C362.37 174.64 363.983 175.2 365.023 176.32C366.063 177.44 366.583 179.16 366.583 181.48V194H362.303V181.92C362.303 180.453 361.996 179.427 361.383 178.84C360.77 178.253 359.77 177.96 358.383 177.96C357.476 177.96 356.61 178.12 355.783 178.44C354.983 178.76 354.29 179.24 353.703 179.88C353.783 180.173 353.836 180.48 353.863 180.8C353.89 181.12 353.903 181.467 353.903 181.84V194H349.863V181.96C349.863 180.573 349.623 179.56 349.143 178.92C348.663 178.28 347.756 177.96 346.423 177.96C345.49 177.96 344.596 178.187 343.743 178.64C342.916 179.067 342.17 179.587 341.503 180.2V194H337.223ZM376.815 194.4C375.615 194.4 374.495 194.187 373.455 193.76C372.442 193.333 371.628 192.693 371.015 191.84C370.402 190.96 370.095 189.88 370.095 188.6C370.095 186.787 370.708 185.333 371.935 184.24C373.188 183.12 375.108 182.56 377.695 182.56H383.775V181.72C383.775 180.813 383.628 180.093 383.335 179.56C383.068 179.027 382.562 178.64 381.815 178.4C381.095 178.16 380.028 178.04 378.615 178.04C376.375 178.04 374.282 178.373 372.335 179.04V175.8C373.188 175.453 374.228 175.173 375.455 174.96C376.682 174.747 378.002 174.64 379.415 174.64C382.188 174.64 384.295 175.2 385.735 176.32C387.202 177.44 387.935 179.267 387.935 181.8V194H384.215L383.935 192.08C383.162 192.827 382.202 193.4 381.055 193.8C379.935 194.2 378.522 194.4 376.815 194.4ZM377.975 191.28C379.282 191.28 380.415 191.067 381.375 190.64C382.362 190.187 383.162 189.587 383.775 188.84V185.52H377.775C376.495 185.52 375.562 185.773 374.975 186.28C374.415 186.76 374.135 187.507 374.135 188.52C374.135 189.507 374.468 190.213 375.135 190.64C375.802 191.067 376.748 191.28 377.975 191.28ZM394.37 171.08V167.48H399.13V171.08H394.37ZM394.73 194V178.36H391.85L392.25 175.04H399.09V194H394.73ZM418.115 194.4C416.568 194.4 415.395 194.027 414.595 193.28C413.795 192.507 413.395 191.24 413.395 189.48V167.04H417.755V189.08C417.755 189.827 417.888 190.333 418.155 190.6C418.422 190.867 418.822 191 419.355 191C419.995 191 420.608 190.92 421.195 190.76V193.92C420.688 194.107 420.195 194.227 419.715 194.28C419.262 194.36 418.728 194.4 418.115 194.4ZM430.526 194.4C429.326 194.4 428.206 194.187 427.166 193.76C426.153 193.333 425.339 192.693 424.726 191.84C424.113 190.96 423.806 189.88 423.806 188.6C423.806 186.787 424.419 185.333 425.646 184.24C426.899 183.12 428.819 182.56 431.406 182.56H437.486V181.72C437.486 180.813 437.339 180.093 437.046 179.56C436.779 179.027 436.273 178.64 435.526 178.4C434.806 178.16 433.739 178.04 432.326 178.04C430.086 178.04 427.993 178.373 426.046 179.04V175.8C426.899 175.453 427.939 175.173 429.166 174.96C430.393 174.747 431.713 174.64 433.126 174.64C435.899 174.64 438.006 175.2 439.446 176.32C440.913 177.44 441.646 179.267 441.646 181.8V194H437.926L437.646 192.08C436.873 192.827 435.913 193.4 434.766 193.8C433.646 194.2 432.233 194.4 430.526 194.4ZM431.686 191.28C432.993 191.28 434.126 191.067 435.086 190.64C436.073 190.187 436.873 189.587 437.486 188.84V185.52H431.486C430.206 185.52 429.273 185.773 428.686 186.28C428.126 186.76 427.846 187.507 427.846 188.52C427.846 189.507 428.179 190.213 428.846 190.64C429.513 191.067 430.459 191.28 431.686 191.28ZM446.481 194V175.04H450.481L450.681 177.04C451.534 176.373 452.548 175.813 453.721 175.36C454.921 174.88 456.241 174.64 457.681 174.64C460.134 174.64 461.921 175.213 463.041 176.36C464.161 177.507 464.721 179.293 464.721 181.72V194H460.401V181.92C460.401 180.453 460.094 179.427 459.481 178.84C458.894 178.253 457.774 177.96 456.121 177.96C455.134 177.96 454.161 178.16 453.201 178.56C452.268 178.96 451.481 179.48 450.841 180.12V194H446.481ZM477.286 201.04C475.873 201.04 474.459 200.947 473.046 200.76C471.633 200.6 470.433 200.347 469.446 200V196.64C470.513 196.987 471.739 197.253 473.126 197.44C474.513 197.627 475.833 197.72 477.086 197.72C479.006 197.72 480.406 197.613 481.286 197.4C482.166 197.187 482.606 196.707 482.606 195.96C482.606 195.4 482.393 195 481.966 194.76C481.539 194.547 480.726 194.44 479.526 194.44H474.406C470.966 194.44 469.246 193.227 469.246 190.8C469.246 190.027 469.473 189.307 469.926 188.64C470.379 187.973 471.099 187.467 472.086 187.12C470.993 186.587 470.179 185.853 469.646 184.92C469.139 183.987 468.886 182.867 468.886 181.56C468.886 179.133 469.606 177.373 471.046 176.28C472.513 175.187 474.699 174.64 477.606 174.64C478.219 174.64 478.859 174.693 479.526 174.8C480.193 174.88 480.713 174.96 481.086 175.04H488.046L487.926 177.88H484.726C485.233 178.307 485.606 178.84 485.846 179.48C486.086 180.12 486.206 180.813 486.206 181.56C486.206 183.587 485.593 185.187 484.366 186.36C483.139 187.507 481.286 188.08 478.806 188.08C478.379 188.08 477.979 188.067 477.606 188.04C477.259 187.987 476.873 187.933 476.446 187.88C475.646 187.96 474.926 188.173 474.286 188.52C473.646 188.867 473.326 189.333 473.326 189.92C473.326 190.32 473.486 190.613 473.806 190.8C474.126 190.96 474.659 191.04 475.406 191.04H480.726C482.619 191.04 484.073 191.453 485.086 192.28C486.126 193.08 486.646 194.253 486.646 195.8C486.646 197.667 485.833 199 484.206 199.8C482.606 200.627 480.299 201.04 477.286 201.04ZM477.606 185.32C479.339 185.32 480.539 185.027 481.206 184.44C481.899 183.853 482.246 182.853 482.246 181.44C482.246 180.027 481.899 179 481.206 178.36C480.539 177.72 479.339 177.4 477.606 177.4C475.979 177.4 474.793 177.707 474.046 178.32C473.299 178.933 472.926 179.973 472.926 181.44C472.926 182.8 473.273 183.787 473.966 184.4C474.686 185.013 475.899 185.32 477.606 185.32ZM498.594 194.4C496.328 194.4 494.581 193.773 493.354 192.52C492.154 191.267 491.554 189.427 491.554 187V175.04H495.914V187C495.914 188.413 496.261 189.453 496.954 190.12C497.648 190.787 498.714 191.12 500.154 191.12C501.221 191.12 502.208 190.92 503.114 190.52C504.021 190.12 504.808 189.587 505.474 188.92V175.04H509.794V194H505.834L505.634 192.04C504.781 192.707 503.768 193.267 502.594 193.72C501.421 194.173 500.088 194.4 498.594 194.4ZM520.213 194.4C519.013 194.4 517.893 194.187 516.853 193.76C515.84 193.333 515.027 192.693 514.413 191.84C513.8 190.96 513.493 189.88 513.493 188.6C513.493 186.787 514.107 185.333 515.333 184.24C516.587 183.12 518.507 182.56 521.093 182.56H527.173V181.72C527.173 180.813 527.027 180.093 526.733 179.56C526.467 179.027 525.96 178.64 525.213 178.4C524.493 178.16 523.427 178.04 522.013 178.04C519.773 178.04 517.68 178.373 515.733 179.04V175.8C516.587 175.453 517.627 175.173 518.853 174.96C520.08 174.747 521.4 174.64 522.813 174.64C525.587 174.64 527.693 175.2 529.133 176.32C530.6 177.44 531.333 179.267 531.333 181.8V194H527.613L527.333 192.08C526.56 192.827 525.6 193.4 524.453 193.8C523.333 194.2 521.92 194.4 520.213 194.4ZM521.373 191.28C522.68 191.28 523.813 191.067 524.773 190.64C525.76 190.187 526.56 189.587 527.173 188.84V185.52H521.173C519.893 185.52 518.96 185.773 518.373 186.28C517.813 186.76 517.533 187.507 517.533 188.52C517.533 189.507 517.867 190.213 518.533 190.64C519.2 191.067 520.147 191.28 521.373 191.28ZM543.848 201.04C542.435 201.04 541.022 200.947 539.608 200.76C538.195 200.6 536.995 200.347 536.008 200V196.64C537.075 196.987 538.302 197.253 539.688 197.44C541.075 197.627 542.395 197.72 543.648 197.72C545.568 197.72 546.968 197.613 547.848 197.4C548.728 197.187 549.168 196.707 549.168 195.96C549.168 195.4 548.955 195 548.528 194.76C548.102 194.547 547.288 194.44 546.088 194.44H540.968C537.528 194.44 535.808 193.227 535.808 190.8C535.808 190.027 536.035 189.307 536.488 188.64C536.942 187.973 537.662 187.467 538.648 187.12C537.555 186.587 536.742 185.853 536.208 184.92C535.702 183.987 535.448 182.867 535.448 181.56C535.448 179.133 536.168 177.373 537.608 176.28C539.075 175.187 541.262 174.64 544.168 174.64C544.782 174.64 545.422 174.693 546.088 174.8C546.755 174.88 547.275 174.96 547.648 175.04H554.608L554.488 177.88H551.288C551.795 178.307 552.168 178.84 552.408 179.48C552.648 180.12 552.768 180.813 552.768 181.56C552.768 183.587 552.155 185.187 550.928 186.36C549.702 187.507 547.848 188.08 545.368 188.08C544.942 188.08 544.542 188.067 544.168 188.04C543.822 187.987 543.435 187.933 543.008 187.88C542.208 187.96 541.488 188.173 540.848 188.52C540.208 188.867 539.888 189.333 539.888 189.92C539.888 190.32 540.048 190.613 540.368 190.8C540.688 190.96 541.222 191.04 541.968 191.04H547.288C549.182 191.04 550.635 191.453 551.648 192.28C552.688 193.08 553.208 194.253 553.208 195.8C553.208 197.667 552.395 199 550.768 199.8C549.168 200.627 546.862 201.04 543.848 201.04ZM544.168 185.32C545.902 185.32 547.102 185.027 547.768 184.44C548.462 183.853 548.808 182.853 548.808 181.44C548.808 180.027 548.462 179 547.768 178.36C547.102 177.72 545.902 177.4 544.168 177.4C542.542 177.4 541.355 177.707 540.608 178.32C539.862 178.933 539.488 179.973 539.488 181.44C539.488 182.8 539.835 183.787 540.528 184.4C541.248 185.013 542.462 185.32 544.168 185.32ZM567.526 194.4C564.22 194.4 561.66 193.587 559.846 191.96C558.033 190.333 557.126 187.84 557.126 184.48C557.126 181.44 557.9 179.04 559.446 177.28C560.993 175.52 563.34 174.64 566.486 174.64C569.366 174.64 571.526 175.4 572.966 176.92C574.433 178.413 575.166 180.347 575.166 182.72V186.24H561.286C561.5 188.08 562.166 189.347 563.286 190.04C564.406 190.733 566.113 191.08 568.406 191.08C569.366 191.08 570.353 190.987 571.366 190.8C572.38 190.613 573.26 190.373 574.006 190.08V193.28C573.153 193.653 572.166 193.933 571.046 194.12C569.953 194.307 568.78 194.4 567.526 194.4ZM561.286 183.4H571.326V182.08C571.326 180.773 570.966 179.76 570.246 179.04C569.526 178.293 568.313 177.92 566.606 177.92C564.58 177.92 563.18 178.36 562.406 179.24C561.66 180.12 561.286 181.507 561.286 183.4ZM281.12 256.88C279.813 255.707 278.76 254.307 277.96 252.68C277.16 251.053 276.587 249.307 276.24 247.44C275.893 245.573 275.72 243.72 275.72 241.88C275.72 240.04 275.893 238.2 276.24 236.36C276.587 234.493 277.16 232.747 277.96 231.12C278.76 229.467 279.813 228.053 281.12 226.88H286.04C283.933 228.72 282.413 230.92 281.48 233.48C280.573 236.013 280.12 238.813 280.12 241.88C280.12 244.947 280.573 247.76 281.48 250.32C282.413 252.853 283.933 255.04 286.04 256.88H281.12ZM289.528 254V228.24H307.488V231.64H293.888V239.44H306.008V242.8H293.888V250.64H307.488V254H289.528ZM318.955 254.4C316.929 254.4 315.409 253.867 314.395 252.8C313.409 251.707 312.915 250.227 312.915 248.36V238.44H310.115V235.04H312.915V230.68L317.235 229.36V235.04H322.275L321.995 238.44H317.235V248.12C317.235 249.213 317.489 249.987 317.995 250.44C318.502 250.867 319.329 251.08 320.475 251.08C321.195 251.08 321.955 250.947 322.755 250.68V253.76C321.715 254.187 320.449 254.4 318.955 254.4ZM332.41 254.4C331.104 254.4 329.85 254.307 328.65 254.12C327.477 253.933 326.504 253.707 325.73 253.44V249.76C326.637 250.107 327.637 250.373 328.73 250.56C329.824 250.747 330.864 250.84 331.85 250.84C333.344 250.84 334.41 250.707 335.05 250.44C335.69 250.173 336.01 249.653 336.01 248.88C336.01 248.32 335.81 247.88 335.41 247.56C335.037 247.24 334.464 246.947 333.69 246.68C332.944 246.413 331.984 246.093 330.81 245.72C329.69 245.347 328.717 244.947 327.89 244.52C327.064 244.067 326.424 243.493 325.97 242.8C325.517 242.107 325.29 241.2 325.29 240.08C325.29 238.347 325.917 237.013 327.17 236.08C328.424 235.12 330.437 234.64 333.21 234.64C334.304 234.64 335.344 234.72 336.33 234.88C337.317 235.04 338.157 235.24 338.85 235.48V239.12C338.104 238.827 337.277 238.6 336.37 238.44C335.49 238.28 334.664 238.2 333.89 238.2C332.504 238.2 331.45 238.32 330.73 238.56C330.037 238.8 329.69 239.28 329.69 240C329.69 240.747 330.05 241.28 330.77 241.6C331.517 241.893 332.704 242.307 334.33 242.84C335.824 243.293 337.01 243.773 337.89 244.28C338.77 244.787 339.397 245.4 339.77 246.12C340.17 246.813 340.37 247.72 340.37 248.84C340.37 250.707 339.69 252.107 338.33 253.04C336.97 253.947 334.997 254.4 332.41 254.4ZM349.979 254.4C348.779 254.4 347.659 254.187 346.619 253.76C345.606 253.333 344.792 252.693 344.179 251.84C343.566 250.96 343.259 249.88 343.259 248.6C343.259 246.787 343.872 245.333 345.099 244.24C346.352 243.12 348.272 242.56 350.859 242.56H356.939V241.72C356.939 240.813 356.792 240.093 356.499 239.56C356.232 239.027 355.726 238.64 354.979 238.4C354.259 238.16 353.192 238.04 351.779 238.04C349.539 238.04 347.446 238.373 345.499 239.04V235.8C346.352 235.453 347.392 235.173 348.619 234.96C349.846 234.747 351.166 234.64 352.579 234.64C355.352 234.64 357.459 235.2 358.899 236.32C360.366 237.44 361.099 239.267 361.099 241.8V254H357.379L357.099 252.08C356.326 252.827 355.366 253.4 354.219 253.8C353.099 254.2 351.686 254.4 349.979 254.4ZM351.139 251.28C352.446 251.28 353.579 251.067 354.539 250.64C355.526 250.187 356.326 249.587 356.939 248.84V245.52H350.939C349.659 245.52 348.726 245.773 348.139 246.28C347.579 246.76 347.299 247.507 347.299 248.52C347.299 249.507 347.632 250.213 348.299 250.64C348.966 251.067 349.912 251.28 351.139 251.28ZM365.934 254V227.04H370.294V242.64L378.254 235.04H383.254L375.534 242.68L383.694 254H379.094L372.814 245L370.294 247.4V254H365.934ZM393.881 254.4C390.468 254.4 387.961 253.547 386.361 251.84C384.788 250.133 384.001 247.693 384.001 244.52C384.001 241.347 384.801 238.907 386.401 237.2C388.001 235.493 390.495 234.64 393.881 234.64C397.295 234.64 399.801 235.493 401.401 237.2C403.001 238.907 403.801 241.347 403.801 244.52C403.801 247.693 403.001 250.133 401.401 251.84C399.828 253.547 397.321 254.4 393.881 254.4ZM393.881 250.72C395.881 250.72 397.295 250.24 398.121 249.28C398.975 248.293 399.401 246.707 399.401 244.52C399.401 242.333 398.975 240.76 398.121 239.8C397.295 238.84 395.881 238.36 393.881 238.36C391.908 238.36 390.495 238.84 389.641 239.8C388.815 240.76 388.401 242.333 388.401 244.52C388.401 246.707 388.815 248.293 389.641 249.28C390.495 250.24 391.908 250.72 393.881 250.72ZM406.443 256.88C408.577 255.04 410.097 252.853 411.003 250.32C411.91 247.76 412.363 244.947 412.363 241.88C412.363 238.813 411.91 236.013 411.003 233.48C410.097 230.92 408.577 228.72 406.443 226.88H411.403C412.71 228.053 413.75 229.467 414.523 231.12C415.323 232.747 415.897 234.493 416.243 236.36C416.59 238.2 416.763 240.04 416.763 241.88C416.763 243.72 416.59 245.573 416.243 247.44C415.897 249.307 415.323 251.053 414.523 252.68C413.75 254.307 412.71 255.707 411.403 256.88H406.443Z" fill="black"/>
</svg>
