<svg width="713" height="713" viewBox="0 0 713 713" fill="none" xmlns="http://www.w3.org/2000/svg">
<path d="M64.8094 66.8455C58.9044 66.7668 53.2677 69.3887 49.4117 74.0076C45.5557 78.6267 43.8751 84.7701 44.8205 90.7898L129.674 622.725C131.856 636.163 143.066 646.043 156.259 646.154H563.337C573.239 646.285 581.741 638.91 583.325 628.815L668.179 90.893C669.126 84.8732 667.444 78.7298 663.589 74.1107C659.732 69.4918 654.095 66.87 648.19 66.9486L64.8094 66.8455ZM422.114 451.298H292.185L257.005 261.497H453.597L422.114 451.298Z" fill="#2684FF"/>
<path fill-rule="evenodd" clip-rule="evenodd" d="M641.205 261.499H453.606L422.125 451.3H292.196L138.779 639.347C143.641 643.687 149.841 646.103 156.269 646.158H563.446C573.35 646.29 581.852 638.915 583.437 628.819L641.205 261.499Z" fill="url(#paint0_linear_141_68)"/>
<defs>
<linearGradient id="paint0_linear_141_68" x1="684.58" y1="314.651" x2="458.468" y2="625.553" gradientUnits="userSpaceOnUse">
<stop offset="0.18" stop-color="#0052CC"/>
<stop offset="1" stop-color="#2684FF"/>
</linearGradient>
</defs>
</svg>
