<svg width="462" height="462" viewBox="0 0 462 462" fill="none" xmlns="http://www.w3.org/2000/svg">
<g clip-path="url(#clip0_137_17)">
<path d="M127.103 125.593L97.2872 95.7771L97.4134 311.298L97.7702 321.371C97.9179 326.111 98.7973 331.459 100.264 337.002L336.516 420.309L395.571 394.144L395.593 394.072L127.103 125.593Z" fill="#00D2B8"/>
<path d="M100.264 337.002L100.279 337.017C100.264 336.919 100.214 336.811 100.214 336.71C100.214 336.811 100.228 336.905 100.264 337.002ZM395.571 394.144L336.516 420.309L100.279 337.017C104.791 354.33 114.781 373.792 125.532 384.435L202.629 461.093L374.055 461.316L395.593 394.072L395.571 394.144Z" fill="#55DDCA"/>
<path d="M5.46739 234.471C-2.16595 242.62 1.62549 259.429 13.9152 271.812L66.9269 325.264L100.264 337.002C98.7974 331.459 97.918 326.111 97.7702 321.371L97.4134 311.298L97.2873 95.7771L5.46739 234.471Z" fill="#0081C6"/>
<path d="M338.455 98.545C332.912 97.1286 327.596 96.2529 322.777 96.1015L312.131 95.7339L97.2872 95.7627L395.622 394.072H395.647L421.848 334.959L338.455 98.545Z" fill="#0079B3"/>
<path d="M338.184 98.4873C338.3 98.5125 338.39 98.545 338.465 98.5558L338.455 98.545C338.39 98.5125 338.3 98.5125 338.184 98.4873ZM385.844 123.856C375.018 112.939 355.812 103.018 338.465 98.5558L421.848 334.959L395.647 394.072H395.622L459.651 373.623L459.788 198.077L385.844 123.856Z" fill="#00A4E4"/>
<path d="M326.774 65.4096L273.337 12.3655C260.979 0.122594 244.162 -3.68687 236.035 3.92485L97.2872 95.7628L312.131 95.7339L322.777 96.1015C327.596 96.2529 332.912 97.1287 338.455 98.5451L326.774 65.4096Z" fill="#00D2B8"/>
</g>
<defs>
<clipPath id="clip0_137_17">
<rect width="461.316" height="461.316" fill="white"/>
</clipPath>
</defs>
</svg>
