<svg width="460" height="460" viewBox="0 0 460 460" fill="none" xmlns="http://www.w3.org/2000/svg">
<g clip-path="url(#clip0_137_54)">
<path d="M391 0H69C30.8924 0 0 30.8924 0 69V391C0 429.108 30.8924 460 69 460H391C429.108 460 460 429.108 460 391V69C460 30.8924 429.108 0 391 0Z" fill="#113228"/>
<path d="M203.945 90.7422H254.258V321.641C228.203 326.133 209.336 328.828 188.672 328.828C126.68 328.828 95.2344 300.977 95.2344 247.969C95.2344 196.758 128.477 164.414 181.484 164.414C189.57 164.414 195.859 164.414 203.945 166.211V90.7422ZM203.945 206.641C197.656 204.844 193.164 203.945 186.875 203.945C160.82 203.945 146.445 220.117 146.445 247.07C146.445 274.023 159.922 288.398 185.977 288.398C191.367 288.398 195.859 288.398 203.945 286.602V206.641ZM334.219 167.109V283.008C334.219 323.438 331.523 342.305 322.539 358.477C314.453 374.648 303.672 384.531 281.211 396.211L234.492 373.75C256.953 363.867 267.734 353.984 274.023 340.508C281.211 326.133 283.906 309.961 283.906 265.938V167.109H334.219ZM283.906 90.7422H334.219V141.953H283.906V90.7422Z" fill="white"/>
</g>
<defs>
<clipPath id="clip0_137_54">
<rect width="460" height="460" fill="white"/>
</clipPath>
</defs>
</svg>
