<svg width="410" height="410" viewBox="0 0 410 410" fill="none" xmlns="http://www.w3.org/2000/svg">
<path d="M33.0568 222.648C23.0774 212.668 23.0774 196.489 33.0568 186.509L186.509 33.0568C196.489 23.0774 212.668 23.0774 222.648 33.0568L376.099 186.509C386.079 196.489 386.079 212.668 376.099 222.648L222.648 376.099C212.668 386.079 196.489 386.079 186.509 376.099L33.0568 222.648Z" fill="#EE513B"/>
<path d="M155.338 64.7173L139.799 80.2568L179.933 120.391C178.309 123.875 177.403 127.759 177.403 131.856C177.403 143.486 184.71 153.409 194.984 157.285V255.465C184.71 259.34 177.403 269.263 177.403 280.894C177.403 295.9 189.567 308.064 204.573 308.064C219.579 308.064 231.744 295.9 231.744 280.894C231.744 270.35 225.738 261.208 216.96 256.705V157.419L255.325 195.784C253.781 199.197 252.921 202.985 252.921 206.974C252.921 221.98 265.086 234.145 280.092 234.145C295.098 234.145 307.263 221.98 307.263 206.974C307.263 191.969 295.098 179.804 280.092 179.804C277.175 179.804 274.368 180.263 271.734 181.113L230.53 139.91C231.319 137.365 231.744 134.66 231.744 131.856C231.744 116.85 219.579 104.685 204.573 104.685C201.769 104.685 199.065 105.11 196.519 105.899L155.338 64.7173Z" fill="white"/>
</svg>
