<svg width="641" height="418" viewBox="0 0 641 418" fill="none" xmlns="http://www.w3.org/2000/svg">
<rect width="641" height="418" fill="#0F0E0E"/>
<g clip-path="url(#clip0_131_60)">
<path d="M321 109C294.478 109 269.043 119.536 250.289 138.289C231.536 157.043 221 182.478 221 209C221 235.522 231.536 260.957 250.289 279.711C269.043 298.464 294.478 309 321 309C347.522 309 372.957 298.464 391.711 279.711C410.464 260.957 421 235.522 421 209C421 182.478 410.464 157.043 391.711 138.289C372.957 119.536 347.522 109 321 109ZM347.358 290.525H346.583C346.001 290.558 345.419 290.471 344.871 290.271C344.324 290.07 343.823 289.76 343.4 289.358C343.009 288.945 342.705 288.458 342.504 287.926C342.304 287.394 342.212 286.827 342.233 286.258V274.542C342.283 270.65 342.317 266.708 342.317 262.742C342.303 259.841 341.879 256.957 341.058 254.175C340.281 251.363 338.713 248.832 336.542 246.883C342.35 246.323 348.06 245.003 353.525 242.958C358.135 241.205 362.305 238.463 365.742 234.925C369.133 231.367 371.658 227.067 373.117 222.375C374.891 216.629 375.735 210.637 375.617 204.625C375.649 200.427 374.915 196.259 373.45 192.325C371.961 188.36 369.711 184.725 366.825 181.625C367.448 180.062 367.901 178.435 368.175 176.775C368.45 175.108 368.592 173.425 368.592 171.742C368.592 169.575 368.342 167.408 367.842 165.3C367.387 163.138 366.772 161.012 366 158.942C365.705 158.827 365.391 158.77 365.075 158.775H364.158C362.242 158.792 360.358 159.108 358.542 159.7C356.541 160.284 354.583 161.008 352.683 161.867C350.794 162.713 348.955 163.668 347.175 164.725C345.383 165.783 343.8 166.8 342.4 167.742C328.381 163.834 313.561 163.834 299.542 167.742C297.978 166.696 296.389 165.691 294.775 164.725C292.97 163.659 291.099 162.707 289.175 161.875C287.281 160.988 285.315 160.26 283.3 159.7C281.519 159.112 279.659 158.8 277.783 158.775H276.867C276.553 158.771 276.242 158.827 275.95 158.942C275.167 161.015 274.527 163.139 274.033 165.3C273.583 167.417 273.367 169.575 273.358 171.742C273.358 173.425 273.5 175.108 273.783 176.775C274.058 178.433 274.5 180.058 275.117 181.625C272.238 184.729 269.996 188.367 268.517 192.333C267.044 196.266 266.301 200.434 266.325 204.633C266.208 210.613 267.03 216.574 268.758 222.3C270.267 226.992 272.783 231.3 276.125 234.933C279.583 238.45 283.75 241.183 288.342 242.967C293.783 245.05 299.483 246.383 305.283 246.933C303.664 248.401 302.379 250.2 301.517 252.208C300.696 254.194 300.136 256.278 299.85 258.408C296.792 259.872 293.448 260.641 290.058 260.658C286.91 260.784 283.803 259.909 281.183 258.158C278.67 256.296 276.542 253.964 274.917 251.292C274.189 250.169 273.376 249.105 272.483 248.108C271.542 247.06 270.504 246.103 269.383 245.25C268.279 244.425 267.068 243.752 265.783 243.25C264.52 242.696 263.155 242.409 261.775 242.408C261.442 242.417 261.108 242.45 260.775 242.492C260.32 242.49 259.866 242.546 259.425 242.658C259.037 242.76 258.67 242.929 258.342 243.158C258.192 243.241 258.067 243.361 257.979 243.508C257.892 243.654 257.844 243.821 257.842 243.992C257.877 244.393 257.999 244.781 258.201 245.13C258.402 245.478 258.678 245.778 259.008 246.008C259.783 246.625 260.425 247.1 260.942 247.433L261.192 247.608C262.3 248.467 263.367 249.392 264.375 250.383C265.308 251.2 266.15 252.125 266.875 253.133C267.625 254.125 268.275 255.183 268.8 256.308C269.408 257.425 270.05 258.708 270.725 260.167C272.292 264.117 275.075 267.458 278.675 269.708C282.45 271.733 286.683 272.742 290.975 272.633C292.425 272.633 293.883 272.55 295.325 272.383C296.758 272.15 298.183 271.908 299.617 271.625V286.15C299.643 286.736 299.545 287.32 299.329 287.865C299.114 288.411 298.786 288.904 298.367 289.314C297.947 289.724 297.446 290.04 296.896 290.243C296.347 290.446 295.76 290.531 295.175 290.492H294.658C275.225 284.214 258.672 271.204 247.98 253.805C237.287 236.406 233.158 215.761 236.336 195.588C239.513 175.415 249.789 157.039 265.312 143.77C280.836 130.5 300.586 123.209 321.008 123.209C341.43 123.209 361.181 130.5 376.704 143.77C392.228 157.039 402.503 175.415 405.681 195.588C408.859 215.761 404.729 236.406 394.037 253.805C383.344 271.204 366.791 284.214 347.358 290.492V290.525Z" fill="white"/>
</g>
<defs>
<clipPath id="clip0_131_60">
<rect width="200" height="200" fill="white" transform="translate(221 109)"/>
</clipPath>
</defs>
</svg>
