<svg width="410" height="410" viewBox="0 0 410 410" fill="none" xmlns="http://www.w3.org/2000/svg">
<g clip-path="url(#clip0_137_35)">
<path fill-rule="evenodd" clip-rule="evenodd" d="M204.565 4.26221C91.5997 4.26221 0 96.2122 0 209.664C0 300.395 58.6116 377.378 139.919 404.541C150.148 406.428 153.881 400.086 153.881 394.643C153.881 389.765 153.702 376.851 153.6 359.714C96.6886 372.127 84.6827 332.179 84.6827 332.179C75.3872 308.457 61.9745 302.141 61.9745 302.141C43.3963 289.394 63.3808 289.65 63.3808 289.65C83.9026 291.101 94.7068 310.819 94.7068 310.819C112.965 342.205 142.591 333.142 154.252 327.879C156.106 314.606 161.399 305.556 167.243 300.421C121.814 295.235 74.0573 277.623 74.0573 198.92C74.0573 176.494 82.0232 158.163 95.1162 143.799C93.0065 138.6 85.987 117.727 97.1109 89.4475C97.1109 89.4475 114.295 83.9275 153.37 110.5C169.698 105.943 187.189 103.671 204.591 103.581C221.968 103.671 239.472 105.943 255.812 110.5C294.861 83.9275 312.008 89.4475 312.008 89.4475C323.17 117.727 316.15 138.6 314.041 143.799C327.159 158.163 335.074 176.494 335.074 198.92C335.074 277.815 287.241 295.183 241.671 300.267C249.01 306.608 255.557 319.137 255.557 338.302C255.557 365.76 255.301 387.904 255.301 394.643C255.301 400.137 258.984 406.53 269.366 404.515C350.596 377.3 409.157 300.369 409.157 209.664C409.157 96.2122 317.557 4.26221 204.565 4.26221Z" fill="#3E75C3"/>
</g>
<defs>
<clipPath id="clip0_137_35">
<rect width="409.157" height="409.157" fill="white"/>
</clipPath>
</defs>
</svg>
