<svg width="487" height="487" viewBox="0 0 487 487" fill="none" xmlns="http://www.w3.org/2000/svg">
<path d="M455.8 271.016L431.906 199.366L384.667 57.2226C384.108 55.6132 383.058 54.2193 381.666 53.2367C380.274 52.2541 378.61 51.7321 376.906 51.7439C375.207 51.7384 373.549 52.2634 372.163 53.2456C370.777 54.2278 369.732 55.6181 369.175 57.2226L321.936 199.274H165.03L117.791 57.1922C117.232 55.5908 116.186 54.2045 114.8 53.2275C113.414 52.2505 111.756 51.7317 110.06 51.7439C108.36 51.7339 106.7 52.2571 105.313 53.2399C103.927 54.2227 102.883 55.6156 102.329 57.2226L55.1509 199.274L31.2879 271.016C30.2318 274.212 30.2328 277.664 31.2908 280.86C32.3488 284.055 34.4075 286.826 37.1624 288.761L243.529 435.226L449.834 288.761C452.601 286.835 454.675 284.07 455.75 280.874C456.824 277.679 456.842 274.222 455.8 271.016Z" fill="#FC6D26"/>
<path d="M243.501 435.134L321.969 199.244H165.064L243.501 435.134Z" fill="#E24329"/>
<path d="M243.501 435.134L165.003 199.244H55.1841L243.501 435.134Z" fill="#FC6D26"/>
<path d="M55.0918 199.335L31.2288 270.985C30.1727 274.181 30.1737 277.633 31.2317 280.829C32.2897 284.025 34.3484 286.795 37.1033 288.73L243.5 435.256L55.0918 199.365V199.335Z" fill="#FCA326"/>
<path d="M55.1523 199.335H165.093L117.793 57.2831C117.235 55.6786 116.19 54.2883 114.804 53.3061C113.418 52.3239 111.76 51.7989 110.062 51.8044C108.358 51.7926 106.693 52.3146 105.301 53.2972C103.909 54.2799 102.859 55.6737 102.3 57.2831L55.1523 199.335Z" fill="#E24329"/>
<path d="M243.5 435.134L321.968 199.244H431.969L243.5 435.134Z" fill="#FC6D26"/>
<path d="M431.908 199.335L455.741 270.985C456.802 274.181 456.803 277.634 455.745 280.831C454.687 284.028 452.625 286.798 449.866 288.73L243.5 435.134L431.847 199.335H431.908Z" fill="#FCA326"/>
<path d="M431.906 199.335H322.027L369.235 57.2833C369.791 55.6713 370.839 54.2749 372.232 53.2917C373.625 52.3084 375.292 51.7882 376.997 51.8046C380.497 51.8046 383.602 54.0265 384.728 57.2833L431.967 199.335H431.906Z" fill="#E24329"/>
</svg>
