<svg width="612" height="612" viewBox="0 0 612 612" fill="none" xmlns="http://www.w3.org/2000/svg">
<path d="M306.952 161.427C432.949 63.6111 368.284 0 368.284 0C377.908 101.121 264.175 124.998 233.688 194.486C212.886 241.903 247.934 283.419 306.91 335.747C301.697 324.157 293.654 312.896 285.515 301.496C257.747 262.611 228.823 222.102 306.952 161.427Z" fill="#E76F00"/>
<path d="M327.067 357.198C327.067 357.198 364.972 326.615 334.954 292.628C233.193 177.325 446.25 124.998 446.25 124.998C316.169 187.664 335.589 224.86 368.285 270.049C403.291 318.504 327.067 357.198 327.067 357.198Z" fill="#E76F00"/>
<path d="M438.67 448.397C555.434 388.731 501.448 331.394 463.766 339.119C454.529 341.009 450.411 342.648 450.411 342.648C450.411 342.648 453.84 337.365 460.389 335.078C534.936 309.307 592.267 411.09 436.324 451.404C436.324 451.404 438.131 449.816 438.67 448.397Z" fill="#5382A1"/>
<path d="M195.705 372.878C122.65 363.285 235.762 336.866 235.762 336.866C235.762 336.866 191.836 333.953 137.812 359.632C73.9317 390.02 295.826 403.84 410.689 374.133C422.631 366.114 439.136 359.164 439.136 359.164C439.136 359.164 392.132 367.418 345.322 371.302C288.044 376.02 226.552 376.94 195.705 372.878Z" fill="#5382A1"/>
<path d="M223.5 429.85C182.761 425.707 209.436 406.29 209.436 406.29C104.018 440.696 268.088 479.713 415.391 437.355C399.733 431.927 389.777 421.999 389.777 421.999C317.785 435.631 276.182 435.195 223.5 429.85Z" fill="#5382A1"/>
<path d="M241.25 491.495C200.543 486.894 224.325 473.294 224.325 473.294C128.631 499.587 282.53 553.908 404.363 502.561C384.408 494.93 370.12 486.121 370.12 486.121C315.773 496.234 290.566 497.028 241.25 491.495Z" fill="#5382A1"/>
<path d="M496.078 522.854C496.078 522.854 513.676 537.114 476.694 548.145C406.37 569.095 184 575.421 122.227 548.981C100.021 539.482 141.663 526.299 154.762 523.531C168.424 520.619 176.23 521.162 176.23 521.162C151.535 504.055 16.6099 554.753 107.695 569.273C356.098 608.886 560.51 551.433 496.078 522.854Z" fill="#5382A1"/>
<path d="M535.498 554.011C531.423 606.161 359.313 617.131 247.235 610.076C174.118 605.465 159.465 593.942 159.25 593.774C229.229 605.119 347.211 607.184 442.872 589.48C527.663 573.781 535.498 554.011 535.498 554.011Z" fill="#5382A1"/>
</svg>
