<svg width="606" height="606" viewBox="0 0 606 606" fill="none" xmlns="http://www.w3.org/2000/svg">
<path d="M596.487 136.854C596.705 137.661 596.818 138.492 596.818 139.327V269.177C596.818 272.569 595.003 275.702 592.061 277.39L483.076 340.137V464.507C483.076 467.892 481.277 471.016 478.342 472.721L250.845 603.683C250.324 603.978 249.756 604.168 249.188 604.369C248.975 604.44 248.774 604.57 248.549 604.629C246.959 605.048 245.287 605.048 243.697 604.629C243.436 604.558 243.2 604.416 242.951 604.322C242.43 604.132 241.886 603.967 241.389 603.683L13.9393 472.721C10.9984 471.031 9.18182 467.899 9.18182 464.507V74.959C9.18182 74.1069 9.30017 73.2785 9.51319 72.4737C9.5842 72.2015 9.74989 71.953 9.84456 71.6808C10.0221 71.1837 10.1878 70.6748 10.4481 70.2133C10.6256 69.9056 10.886 69.6571 11.099 69.373C11.3712 68.9943 11.6198 68.6038 11.9393 68.2724C12.2115 68.0002 12.5665 67.799 12.8742 67.5623C13.2174 67.2783 13.5251 66.9706 13.9157 66.7457H13.9275L127.658 1.26478C130.589 -0.421594 134.195 -0.421594 137.126 1.26478L250.857 66.7457H250.88C251.259 66.9824 251.579 67.2783 251.922 67.5505C252.229 67.7872 252.573 68.0002 252.845 68.2606C253.176 68.6038 253.413 68.9943 253.697 69.373C253.898 69.6571 254.17 69.9056 254.336 70.2133C254.608 70.6867 254.762 71.1837 254.951 71.6808C255.046 71.953 255.212 72.2015 255.283 72.4855C255.501 73.292 255.612 74.1236 255.614 74.959V318.267L350.386 263.698V139.316C350.386 138.487 350.504 137.647 350.717 136.854C350.8 136.57 350.954 136.321 351.049 136.049C351.238 135.552 351.404 135.043 351.664 134.582C351.841 134.274 352.102 134.026 352.303 133.742C352.587 133.363 352.824 132.972 353.155 132.641C353.427 132.369 353.771 132.168 354.078 131.931C354.433 131.647 354.741 131.339 355.12 131.114H355.132L468.874 65.6333C471.804 63.9445 475.412 63.9445 478.342 65.6333L592.072 131.114C592.475 131.351 592.783 131.647 593.138 131.919C593.433 132.156 593.777 132.369 594.049 132.629C594.38 132.972 594.617 133.363 594.901 133.742C595.114 134.026 595.374 134.274 595.54 134.582C595.812 135.043 595.966 135.552 596.155 136.049C596.262 136.321 596.416 136.57 596.487 136.854ZM577.859 263.698V155.718L538.059 178.63L483.076 210.288V318.267L577.871 263.698H577.859ZM464.128 459.028V350.978L410.044 381.866L255.602 470.011V579.078L464.128 459.028ZM28.1409 91.3499V459.028L236.643 579.067V470.022L127.717 408.376L127.682 408.352L127.635 408.328C127.268 408.115 126.96 407.808 126.617 407.547C126.321 407.311 125.978 407.121 125.717 406.861L125.694 406.825C125.386 406.53 125.173 406.163 124.913 405.831C124.676 405.512 124.392 405.24 124.203 404.908L124.191 404.873C123.978 404.518 123.847 404.092 123.694 403.689C123.54 403.334 123.339 403.003 123.244 402.624V402.612C123.126 402.163 123.102 401.689 123.055 401.228C123.007 400.873 122.913 400.518 122.913 400.163V400.139V145.919L67.9407 114.25L28.1409 91.3618V91.3499ZM132.404 20.4132L37.6441 74.959L132.38 129.505L227.128 74.9471L132.38 20.4132H132.404ZM181.683 360.824L236.655 329.179V91.3499L196.855 114.262L141.872 145.919V383.748L181.683 360.824ZM473.608 84.7817L378.86 139.327L473.608 193.873L568.344 139.316L473.608 84.7817ZM464.128 210.288L409.145 178.63L369.345 155.718V263.698L424.317 295.343L464.128 318.267V210.288ZM246.111 453.62L385.085 374.28L454.554 334.634L359.877 280.124L250.868 342.883L151.517 400.08L246.111 453.62Z" fill="#FF2D20"/>
</svg>
