<svg width="168" height="50" viewBox="0 0 168 50" fill="none" xmlns="http://www.w3.org/2000/svg">
<path fill-rule="evenodd" clip-rule="evenodd" d="M28.1884 19.752H25.4542L20.1107 30.0573H23.5458L27.405 22.6145H37.8587L39.3855 19.752H28.8893H28.1884ZM37.8588 22.6146H34.4237L28.3046 34.2557H18.0116L16.103 37.5H26.5993L26.5992 37.5001H30.416L37.8588 22.6146Z" fill="#BEC2FF"/>
<path fill-rule="evenodd" clip-rule="evenodd" d="M18.6465 12.5H32.5153L30.9886 15.3626H17.2481L18.6465 12.5ZM14.6755 27.0038H21.6981L20.1107 30.0572H13.0496L13.0496 30.0573H9.6145L17.2481 15.3626H20.874L14.6755 27.0038Z" fill="#E5E1E6"/>
<path d="M48.5935 29.64C47.0348 29.64 45.8495 29.248 45.0375 28.464C44.2255 27.6707 43.8195 26.5553 43.8195 25.118C43.8195 23.6153 44.2348 22.444 45.0655 21.604C45.8962 20.764 47.1188 20.344 48.7335 20.344C49.2842 20.344 49.7788 20.3767 50.2175 20.442C50.6655 20.5073 51.0902 20.6053 51.4915 20.736V22.668C51.0902 22.5187 50.6702 22.416 50.2315 22.36C49.8022 22.304 49.3588 22.276 48.9015 22.276C47.9308 22.276 47.2215 22.5093 46.7735 22.976C46.3348 23.4333 46.1155 24.1473 46.1155 25.118C46.1155 26.0047 46.3255 26.6627 46.7455 27.092C47.1655 27.512 47.7862 27.722 48.6075 27.722C49.1488 27.722 49.6528 27.6473 50.1195 27.498V25.79H48.1735V24.376H52.0095V28.842C51.6922 29.0473 51.2488 29.234 50.6795 29.402C50.1195 29.5607 49.4242 29.64 48.5935 29.64ZM57.378 29.64C55.9126 29.64 54.7973 29.2667 54.032 28.52C53.2666 27.7733 52.884 26.6113 52.884 25.034C52.884 23.3633 53.2666 22.164 54.032 21.436C54.7973 20.708 55.9126 20.344 57.378 20.344C58.8433 20.344 59.9586 20.708 60.724 21.436C61.4893 22.164 61.872 23.3633 61.872 25.034C61.872 26.6113 61.4893 27.7733 60.724 28.52C59.9586 29.2667 58.8433 29.64 57.378 29.64ZM57.378 27.722C58.134 27.722 58.6846 27.5073 59.03 27.078C59.3846 26.6393 59.562 25.958 59.562 25.034C59.562 24.026 59.3846 23.3167 59.03 22.906C58.6846 22.486 58.134 22.276 57.378 22.276C56.6126 22.276 56.0526 22.486 55.698 22.906C55.3526 23.3167 55.18 24.026 55.18 25.034C55.18 25.958 55.3526 26.6393 55.698 27.078C56.0526 27.5073 56.6126 27.722 57.378 27.722ZM63.0214 29.5V20.484H66.9274C67.842 20.484 68.612 20.638 69.2374 20.946C69.8627 21.2447 70.3387 21.73 70.6654 22.402C70.992 23.0647 71.1554 23.9467 71.1554 25.048C71.1554 26.5973 70.796 27.7267 70.0774 28.436C69.368 29.1453 68.318 29.5 66.9274 29.5H63.0214ZM65.2754 27.764H66.6194C67.1047 27.764 67.5107 27.694 67.8374 27.554C68.1734 27.4047 68.4254 27.134 68.5934 26.742C68.7707 26.35 68.8594 25.7853 68.8594 25.048C68.8594 24.3013 68.78 23.7273 68.6214 23.326C68.472 22.9153 68.2294 22.6307 67.8934 22.472C67.5667 22.304 67.142 22.22 66.6194 22.22H65.2754V27.764ZM75.1746 29.64C74.5772 29.64 74.0172 29.5933 73.4946 29.5C72.9812 29.416 72.5379 29.29 72.1646 29.122V27.204C72.5752 27.3813 73.0279 27.526 73.5226 27.638C74.0266 27.75 74.5026 27.806 74.9506 27.806C75.5106 27.806 75.9259 27.7547 76.1966 27.652C76.4766 27.5493 76.6166 27.3253 76.6166 26.98C76.6166 26.7467 76.5466 26.56 76.4066 26.42C76.2759 26.28 76.0566 26.1587 75.7486 26.056C75.4499 25.944 75.0392 25.8133 74.5166 25.664C73.9006 25.4773 73.4106 25.272 73.0466 25.048C72.6826 24.8147 72.4212 24.5347 72.2626 24.208C72.1039 23.8813 72.0246 23.48 72.0246 23.004C72.0246 22.1453 72.3326 21.4873 72.9486 21.03C73.5646 20.5727 74.4746 20.344 75.6786 20.344C76.2012 20.344 76.7099 20.386 77.2046 20.47C77.6992 20.5447 78.1006 20.6333 78.4086 20.736V22.668C78.0072 22.5093 77.6012 22.3927 77.1906 22.318C76.7892 22.2433 76.3972 22.206 76.0146 22.206C75.5106 22.206 75.0999 22.2527 74.7826 22.346C74.4746 22.4393 74.3206 22.654 74.3206 22.99C74.3206 23.186 74.3766 23.3447 74.4886 23.466C74.6006 23.578 74.7919 23.6807 75.0626 23.774C75.3426 23.8673 75.7206 23.9793 76.1966 24.11C76.9339 24.306 77.4986 24.544 77.8906 24.824C78.2826 25.0947 78.5532 25.412 78.7026 25.776C78.8519 26.1307 78.9266 26.532 78.9266 26.98C78.9266 27.7733 78.6186 28.4173 78.0026 28.912C77.3866 29.3973 76.4439 29.64 75.1746 29.64ZM80.0702 29.5V20.484H86.7202V22.22H82.3242V24.11H86.2022V25.874H82.3242V27.764H86.7202V29.5H80.0702ZM87.7948 29.5V20.484H89.7268L93.5628 25.874V20.484H95.8308V29.5H93.8848L90.0488 24.124V29.5H87.7948ZM97.2557 29.5V20.484H101.162C102.076 20.484 102.846 20.638 103.472 20.946C104.097 21.2447 104.573 21.73 104.9 22.402C105.226 23.0647 105.39 23.9467 105.39 25.048C105.39 26.5973 105.03 27.7267 104.312 28.436C103.602 29.1453 102.552 29.5 101.162 29.5H97.2557ZM99.5097 27.764H100.854C101.339 27.764 101.745 27.694 102.072 27.554C102.408 27.4047 102.66 27.134 102.828 26.742C103.005 26.35 103.094 25.7853 103.094 25.048C103.094 24.3013 103.014 23.7273 102.856 23.326C102.706 22.9153 102.464 22.6307 102.128 22.472C101.801 22.304 101.376 22.22 100.854 22.22H99.5097V27.764ZM111.059 29.64C110.676 29.64 110.307 29.612 109.953 29.556C109.607 29.5093 109.285 29.43 108.987 29.318V27.428C109.211 27.5213 109.463 27.596 109.743 27.652C110.023 27.6987 110.307 27.722 110.597 27.722C111.147 27.722 111.535 27.6147 111.759 27.4C111.992 27.176 112.109 26.8073 112.109 26.294V20.484H114.363V26.714C114.363 27.6567 114.083 28.38 113.523 28.884C112.963 29.388 112.141 29.64 111.059 29.64ZM119.94 29.64C118.475 29.64 117.36 29.2667 116.594 28.52C115.829 27.7733 115.446 26.6113 115.446 25.034C115.446 23.3633 115.829 22.164 116.594 21.436C117.36 20.708 118.475 20.344 119.94 20.344C121.406 20.344 122.521 20.708 123.286 21.436C124.052 22.164 124.434 23.3633 124.434 25.034C124.434 26.6113 124.052 27.7733 123.286 28.52C122.521 29.2667 121.406 29.64 119.94 29.64ZM119.94 27.722C120.696 27.722 121.247 27.5073 121.592 27.078C121.947 26.6393 122.124 25.958 122.124 25.034C122.124 24.026 121.947 23.3167 121.592 22.906C121.247 22.486 120.696 22.276 119.94 22.276C119.175 22.276 118.615 22.486 118.26 22.906C117.915 23.3167 117.742 24.026 117.742 25.034C117.742 25.958 117.915 26.6393 118.26 27.078C118.615 27.5073 119.175 27.722 119.94 27.722ZM128.454 29.64C127.857 29.64 127.297 29.5933 126.774 29.5C126.261 29.416 125.817 29.29 125.444 29.122V27.204C125.855 27.3813 126.307 27.526 126.802 27.638C127.306 27.75 127.782 27.806 128.23 27.806C128.79 27.806 129.205 27.7547 129.476 27.652C129.756 27.5493 129.896 27.3253 129.896 26.98C129.896 26.7467 129.826 26.56 129.686 26.42C129.555 26.28 129.336 26.1587 129.028 26.056C128.729 25.944 128.319 25.8133 127.796 25.664C127.18 25.4773 126.69 25.272 126.326 25.048C125.962 24.8147 125.701 24.5347 125.542 24.208C125.383 23.8813 125.304 23.48 125.304 23.004C125.304 22.1453 125.612 21.4873 126.228 21.03C126.844 20.5727 127.754 20.344 128.958 20.344C129.481 20.344 129.989 20.386 130.484 20.47C130.979 20.5447 131.38 20.6333 131.688 20.736V22.668C131.287 22.5093 130.881 22.3927 130.47 22.318C130.069 22.2433 129.677 22.206 129.294 22.206C128.79 22.206 128.379 22.2527 128.062 22.346C127.754 22.4393 127.6 22.654 127.6 22.99C127.6 23.186 127.656 23.3447 127.768 23.466C127.88 23.578 128.071 23.6807 128.342 23.774C128.622 23.8673 129 23.9793 129.476 24.11C130.213 24.306 130.778 24.544 131.17 24.824C131.562 25.0947 131.833 25.412 131.982 25.776C132.131 26.1307 132.206 26.532 132.206 26.98C132.206 27.7733 131.898 28.4173 131.282 28.912C130.666 29.3973 129.723 29.64 128.454 29.64ZM133.349 29.5V20.484H139.999V22.22H135.603V24.11H139.481V25.874H135.603V27.764H139.999V29.5H133.349ZM141.074 29.5V20.484H145.512C146.231 20.484 146.823 20.6287 147.29 20.918C147.757 21.198 148.102 21.5807 148.326 22.066C148.559 22.5513 148.676 23.0973 148.676 23.704C148.676 24.32 148.545 24.866 148.284 25.342C148.023 25.818 147.649 26.1913 147.164 26.462C146.688 26.7233 146.119 26.854 145.456 26.854H143.328V29.5H141.074ZM143.328 25.118H144.952C145.428 25.118 145.783 24.9873 146.016 24.726C146.259 24.4647 146.38 24.1193 146.38 23.69C146.38 23.2233 146.268 22.864 146.044 22.612C145.829 22.3507 145.489 22.22 145.022 22.22H143.328V25.118ZM149.564 29.5V20.484H151.818V24.054H155.346V20.484H157.6V29.5H155.346V25.93H151.818V29.5H149.564Z" fill="#BEC2FF"/>
</svg>
