<svg width="572" height="572" viewBox="0 0 572 572" fill="none" xmlns="http://www.w3.org/2000/svg">
<path d="M286 417.65C424.209 417.65 536.25 358.708 536.25 286C536.25 213.292 424.209 154.351 286 154.351C147.791 154.351 35.75 213.292 35.75 286C35.75 358.708 147.791 417.65 286 417.65Z" fill="url(#paint0_radial_137_2)"/>
<path d="M286 407.872C418.809 407.872 526.472 353.308 526.472 286C526.472 218.693 418.809 164.129 286 164.129C153.191 164.129 45.5277 218.693 45.5277 286C45.5277 353.308 153.191 407.872 286 407.872Z" fill="#6280B6"/>
<path d="M334.71 325.325L346.632 263.942C348.331 258.689 348.61 253.08 347.442 247.683C346.275 242.287 343.701 237.296 339.983 233.215C329.603 225.844 316.894 222.508 304.233 223.83H283.623L289.539 193.443C289.647 192.877 289.629 192.294 289.486 191.737C289.342 191.179 289.078 190.659 288.711 190.215C288.344 189.772 287.883 189.414 287.362 189.169C286.841 188.923 286.272 188.796 285.696 188.795H257.096C256.188 188.795 255.308 189.111 254.607 189.688C253.906 190.265 253.427 191.068 253.253 191.959L240.58 257.132C239.604 250.163 236.645 243.623 232.053 238.291C226.942 233.172 220.775 229.229 213.983 226.738C207.191 224.247 199.938 223.267 192.728 223.866H137.638C136.729 223.866 135.85 224.181 135.148 224.759C134.447 225.336 133.969 226.139 133.794 227.03L108.162 358.948C108.054 359.513 108.072 360.096 108.215 360.654C108.359 361.212 108.623 361.731 108.99 362.175C109.357 362.619 109.818 362.976 110.339 363.222C110.86 363.467 111.429 363.595 112.005 363.595H140.658C141.567 363.595 142.447 363.28 143.148 362.703C143.849 362.125 144.327 361.322 144.502 360.431L150.704 328.524H172.154C181.625 328.777 191.078 327.571 200.182 324.949C207.858 322.41 214.878 318.204 220.738 312.633C225.541 308.259 229.641 303.17 232.894 297.547L227.763 323.913C227.656 324.478 227.674 325.061 227.817 325.619C227.96 326.177 228.225 326.696 228.592 327.14C228.959 327.584 229.42 327.941 229.941 328.187C230.462 328.432 231.031 328.56 231.606 328.56H260.206C261.115 328.56 261.995 328.245 262.696 327.668C263.397 327.09 263.875 326.287 264.05 325.396L278.117 252.985H297.672C306.002 252.985 308.397 254.647 309.112 255.362C309.827 256.077 310.9 258.311 309.559 265.533L298.209 323.895C298.101 324.46 298.119 325.043 298.262 325.601C298.406 326.159 298.67 326.678 299.037 327.122C299.404 327.566 299.865 327.923 300.386 328.169C300.907 328.414 301.476 328.542 302.052 328.542H331.009C331.9 328.507 332.753 328.17 333.426 327.585C334.098 326.999 334.551 326.202 334.71 325.325ZM202.524 274.667C201.65 282.171 198.087 289.105 192.496 294.186C185.473 298.555 177.237 300.566 168.99 299.924H156.263L165.469 252.538H181.932C194.033 252.538 198.895 255.13 200.862 257.292C202.361 259.902 203.286 262.803 203.572 265.8C203.859 268.796 203.502 271.82 202.524 274.667Z" fill="white"/>
<path d="M456.635 238.31C451.523 233.19 445.356 229.248 438.565 226.756C431.773 224.265 424.519 223.285 417.31 223.885H362.058C361.15 223.884 360.27 224.2 359.569 224.777C358.868 225.354 358.389 226.157 358.215 227.048L332.582 358.966C332.475 359.532 332.493 360.114 332.636 360.672C332.779 361.23 333.044 361.75 333.411 362.193C333.778 362.637 334.239 362.995 334.76 363.24C335.281 363.486 335.849 363.613 336.425 363.613H365.168C366.077 363.614 366.957 363.298 367.658 362.721C368.359 362.144 368.837 361.341 369.012 360.45L375.214 328.543H396.664C406.135 328.796 415.588 327.59 424.692 324.968C432.368 322.428 439.388 318.222 445.248 312.652C455.285 303.607 462.047 291.496 464.482 278.207C466.405 271.408 466.697 264.252 465.333 257.319C463.97 250.386 460.989 243.874 456.635 238.31ZM426.837 274.667C425.963 282.172 422.401 289.106 416.809 294.187C409.769 298.561 401.513 300.565 393.25 299.907H380.559L389.764 252.52H406.227C418.329 252.52 423.191 255.112 425.157 257.275C426.662 259.886 427.591 262.789 427.881 265.789C428.171 268.789 427.815 271.816 426.837 274.667Z" fill="white"/>
<path d="M181.932 248.605C185.788 248.12 189.703 248.404 193.449 249.441C197.196 250.478 200.699 252.248 203.757 254.647C205.73 257.685 206.989 261.131 207.438 264.726C207.887 268.32 207.514 271.97 206.349 275.4C205.327 283.846 201.244 291.624 194.873 297.261C187.189 302.21 178.106 304.531 168.99 303.875H151.509L162.234 248.659L181.932 248.605ZM111.915 359.716H140.658L147.469 324.646H172.083C181.143 324.893 190.186 323.741 198.895 321.232C206.042 318.872 212.576 314.952 218.021 309.756C227.448 301.276 233.797 289.911 236.075 277.438C237.879 271.235 238.196 264.695 237 258.347C235.805 251.999 233.13 246.023 229.193 240.901C224.446 236.206 218.733 232.603 212.45 230.343C206.167 228.083 199.468 227.221 192.818 227.817H137.638L111.915 359.716Z" fill="#000004"/>
<path d="M257.168 192.729H285.768L278.85 227.8H304.25C315.916 226.579 327.637 229.543 337.319 236.165C340.524 239.808 342.714 244.229 343.671 248.985C344.628 253.741 344.318 258.665 342.771 263.264L330.848 324.646H301.909L313.259 266.284C314.05 264.057 314.332 261.681 314.084 259.33C313.837 256.979 313.066 254.714 311.829 252.699C307.69 249.734 302.577 248.456 297.529 249.124H274.739L260.045 324.7H231.445L257.168 192.729Z" fill="#000004"/>
<path d="M406.245 248.605C410.102 248.12 414.016 248.404 417.763 249.441C421.509 250.478 425.012 252.248 428.07 254.647C430.044 257.685 431.302 261.131 431.751 264.726C432.2 268.32 431.828 271.97 430.662 275.4C429.64 283.846 425.558 291.624 419.187 297.261C411.488 302.222 402.384 304.543 393.25 303.875H375.768L386.493 248.659L406.245 248.605ZM336.229 359.716H364.972L371.782 324.646H396.396C405.456 324.893 414.5 323.741 423.208 321.232C430.356 318.872 436.889 314.952 442.335 309.756C451.761 301.276 458.11 289.911 460.388 277.438C462.192 271.235 462.509 264.695 461.313 258.347C460.118 251.999 457.443 246.023 453.507 240.901C448.76 236.206 443.046 232.603 436.763 230.343C430.481 228.083 423.781 227.221 417.131 227.817H361.861L336.229 359.716Z" fill="#000004"/>
<defs>
<radialGradient id="paint0_radial_137_2" cx="0" cy="0" r="1" gradientUnits="userSpaceOnUse" gradientTransform="translate(186.007 200.647) scale(328.614 328.614)">
<stop stop-color="white"/>
<stop offset="0.5" stop-color="#4C6B96"/>
<stop offset="1" stop-color="#231F20"/>
</radialGradient>
</defs>
</svg>
