<svg width="575" height="575" viewBox="0 0 575 575" fill="none" xmlns="http://www.w3.org/2000/svg">
<path fill-rule="evenodd" clip-rule="evenodd" d="M233.888 35.9375C194.409 35.9375 162.406 66.9251 162.406 105.15V153.067H286.125V166.377H107.42C67.9411 166.377 35.9375 197.365 35.9375 235.59V339.41C35.9375 377.635 67.9411 408.622 107.42 408.622H148.659V350.058C148.659 311.833 180.663 280.844 220.142 280.844H352.108C385.514 280.844 412.593 254.624 412.593 222.281V105.15C412.593 66.9251 380.591 35.9375 341.112 35.9375H233.888ZM217.393 121.123C231.058 121.123 242.136 110.396 242.136 97.1644C242.136 83.9326 231.058 73.2059 217.393 73.2059C203.726 73.2059 192.648 83.9326 192.648 97.1644C192.648 110.396 203.726 121.123 217.393 121.123Z" fill="url(#paint0_linear_137_51)"/>
<path fill-rule="evenodd" clip-rule="evenodd" d="M341.107 539.063C380.586 539.063 412.59 508.076 412.59 469.851V421.934H288.87V408.624H467.576C507.055 408.624 539.058 377.635 539.058 339.411V235.591C539.058 197.366 507.055 166.378 467.576 166.378H426.336V224.942C426.336 263.169 394.332 294.156 354.855 294.156H222.887C189.481 294.156 162.402 320.376 162.402 352.72V469.851C162.402 508.076 194.406 539.063 233.884 539.063H341.107ZM357.604 453.879C343.937 453.879 332.859 464.604 332.859 477.836C332.859 491.069 343.937 501.794 357.604 501.794C371.269 501.794 382.347 491.069 382.347 477.836C382.347 464.604 371.269 453.879 357.604 453.879Z" fill="url(#paint1_linear_137_51)"/>
<defs>
<linearGradient id="paint0_linear_137_51" x1="224.266" y1="35.9375" x2="224.266" y2="408.622" gradientUnits="userSpaceOnUse">
<stop stop-color="#327EBD"/>
<stop offset="1" stop-color="#1565A7"/>
</linearGradient>
<linearGradient id="paint1_linear_137_51" x1="350.731" y1="166.378" x2="350.731" y2="539.063" gradientUnits="userSpaceOnUse">
<stop stop-color="#FFDA4B"/>
<stop offset="1" stop-color="#F9C600"/>
</linearGradient>
</defs>
</svg>
