<svg width="587" height="531" viewBox="0 0 587 531" fill="none" xmlns="http://www.w3.org/2000/svg">
<g clip-path="url(#clip0_137_28)">
<rect width="587" height="531" rx="62" fill="white"/>
<path d="M432.441 336.553C402.156 336.553 376.531 355.19 367.212 383.145H269.369C269.369 366.838 264.71 352.86 257.721 341.212L423.123 171.151C430.112 171.151 437.101 173.48 444.089 173.48C476.704 173.48 502.33 147.855 502.33 115.24C502.33 82.6257 476.704 57 444.089 57C411.475 57 385.849 82.6257 385.849 115.24C385.849 122.229 388.179 131.547 390.508 138.536L227.436 306.268C213.458 294.62 194.821 289.961 176.184 289.961V192.117C204.14 182.799 222.777 157.173 222.777 126.888C222.777 87.2849 192.492 57 152.888 57C113.285 57 83 87.2849 83 126.888C83 157.173 101.637 182.799 129.592 192.117V301.609C101.637 317.916 83 348.201 83 380.816C83 432.067 124.933 474 176.184 474C211.129 474 241.413 455.363 255.391 427.408H364.883C374.201 453.034 399.827 474 430.112 474C467.385 474 500 443.715 500 404.112C502.33 366.838 469.715 336.553 432.441 336.553Z" fill="black"/>
</g>
<defs>
<clipPath id="clip0_137_28">
<rect width="587" height="531" rx="62" fill="white"/>
</clipPath>
</defs>
</svg>
