<svg width="1202" height="509" viewBox="0 0 1202 509" fill="none" xmlns="http://www.w3.org/2000/svg">
<path d="M4.5 81.5C4.5 81.5 86.6467 0.4178 150 7.5C202.261 13.3422 210.683 72.5377 262.5 81.5C333.847 93.8402 360.902 -3.28903 432.5 7.5C486.286 15.605 506.31 72.7756 560 81.5C633.418 93.4302 651.638 5.82201 726 7.5C796.602 9.09315 820.38 81.5801 891 81.5C961.442 81.4201 985.169 3.54048 1055.5 7.5C1118.11 11.0247 1198 81.5 1198 81.5" stroke="black" stroke-width="12"/>
<path d="M4.5 165.455C4.5 165.455 86.6467 84.3732 150 91.4554C202.261 97.2976 210.683 156.493 262.5 165.455C333.847 177.796 360.902 80.6664 432.5 91.4554C486.286 99.5604 506.31 156.731 560 165.455C633.418 177.386 651.638 89.7774 726 91.4554C796.602 93.0485 820.38 165.535 891 165.455C961.442 165.375 985.169 87.4959 1055.5 91.4554C1118.11 94.9801 1198 165.455 1198 165.455" stroke="black" stroke-width="12"/>
<path d="M4.5 249.411C4.5 249.411 86.6467 168.329 150 175.411C202.261 181.253 210.683 240.448 262.5 249.411C333.847 261.751 360.902 164.622 432.5 175.411C486.286 183.516 506.31 240.686 560 249.411C633.418 261.341 651.638 173.733 726 175.411C796.602 177.004 820.38 249.491 891 249.411C961.442 249.331 985.169 171.451 1055.5 175.411C1118.11 178.935 1198 249.411 1198 249.411" stroke="black" stroke-width="12"/>
<path d="M4.5 333.366C4.5 333.366 86.6467 252.284 150 259.366C202.261 265.208 210.683 324.404 262.5 333.366C333.847 345.706 360.902 248.577 432.5 259.366C486.286 267.471 506.31 324.642 560 333.366C633.418 345.296 651.638 257.688 726 259.366C796.602 260.959 820.38 333.446 891 333.366C961.442 333.286 985.169 255.407 1055.5 259.366C1118.11 262.891 1198 333.366 1198 333.366" stroke="black" stroke-width="12"/>
<path d="M4.5 417.322C4.5 417.322 86.6467 336.239 150 343.322C202.261 349.164 210.683 408.359 262.5 417.322C333.847 429.662 360.902 332.533 432.5 343.322C486.286 351.427 506.31 408.597 560 417.322C633.418 429.252 651.638 341.644 726 343.322C796.602 344.915 820.38 417.402 891 417.322C961.442 417.242 985.169 339.362 1055.5 343.322C1118.11 346.846 1198 417.322 1198 417.322" stroke="black" stroke-width="12"/>
<path d="M4.5 501.277C4.5 501.277 86.6467 420.195 150 427.277C202.261 433.119 210.683 492.315 262.5 501.277C333.847 513.617 360.902 416.488 432.5 427.277C486.286 435.382 506.31 492.552 560 501.277C633.418 513.207 651.638 425.599 726 427.277C796.602 428.87 820.38 501.357 891 501.277C961.442 501.197 985.169 423.317 1055.5 427.277C1118.11 430.802 1198 501.277 1198 501.277" stroke="black" stroke-width="12"/>
</svg>
