<svg width="564" height="606" viewBox="0 0 564 606" fill="none" xmlns="http://www.w3.org/2000/svg">
<circle cx="192" cy="12" r="12" fill="#1B1B1F"/>
<circle cx="252" cy="12" r="12" fill="#1B1B1F"/>
<circle cx="312" cy="12" r="12" fill="#1B1B1F"/>
<circle cx="372" cy="12" r="12" fill="#1B1B1F"/>
<circle cx="192" cy="68" r="12" fill="#1B1B1F"/>
<ellipse cx="131.5" cy="68" rx="11.5" ry="12" fill="#1B1B1F"/>
<circle cx="252" cy="68" r="12" fill="#1B1B1F"/>
<circle cx="312" cy="68" r="12" fill="#1B1B1F"/>
<circle cx="372" cy="68" r="12" fill="#1B1B1F"/>
<circle cx="432" cy="68" r="12" fill="#1B1B1F"/>
<circle cx="192" cy="124" r="12" fill="#1B1B1F"/>
<ellipse cx="131.5" cy="124" rx="11.5" ry="12" fill="#1B1B1F"/>
<ellipse cx="71.5" cy="124" rx="11.5" ry="12" fill="#1B1B1F"/>
<circle cx="252" cy="124" r="12" fill="#1B1B1F"/>
<circle cx="312" cy="124" r="12" fill="#1B1B1F"/>
<circle cx="372" cy="124" r="12" fill="#1B1B1F"/>
<circle cx="432" cy="124" r="12" fill="#1B1B1F"/>
<circle cx="492" cy="124" r="12" fill="#1B1B1F"/>
<circle cx="192" cy="180" r="12" fill="#1B1B1F"/>
<ellipse cx="131.5" cy="180" rx="11.5" ry="12" fill="#1B1B1F"/>
<ellipse cx="71.5" cy="180" rx="11.5" ry="12" fill="#1B1B1F"/>
<ellipse cx="11.5" cy="180" rx="11.5" ry="12" fill="#1B1B1F"/>
<circle cx="252" cy="180" r="12" fill="#1B1B1F"/>
<circle cx="312" cy="180" r="12" fill="#1B1B1F"/>
<circle cx="372" cy="180" r="12" fill="#1B1B1F"/>
<circle cx="432" cy="180" r="12" fill="#1B1B1F"/>
<circle cx="492" cy="180" r="12" fill="#1B1B1F"/>
<circle cx="552" cy="180" r="12" fill="#1B1B1F"/>
<circle cx="192" cy="236" r="12" fill="#1B1B1F"/>
<ellipse cx="131.5" cy="236" rx="11.5" ry="12" fill="#1B1B1F"/>
<ellipse cx="71.5" cy="236" rx="11.5" ry="12" fill="#1B1B1F"/>
<ellipse cx="11.5" cy="236" rx="11.5" ry="12" fill="#1B1B1F"/>
<circle cx="252" cy="236" r="12" fill="#1B1B1F"/>
<circle cx="312" cy="236" r="12" fill="#1B1B1F"/>
<circle cx="372" cy="236" r="12" fill="#1B1B1F"/>
<circle cx="432" cy="236" r="12" fill="#1B1B1F"/>
<circle cx="492" cy="236" r="12" fill="#1B1B1F"/>
<circle cx="552" cy="236" r="12" fill="#1B1B1F"/>
<circle cx="192" cy="300" r="12" fill="#1B1B1F"/>
<ellipse cx="131.5" cy="300" rx="11.5" ry="12" fill="#1B1B1F"/>
<ellipse cx="71.5" cy="300" rx="11.5" ry="12" fill="#1B1B1F"/>
<ellipse cx="11.5" cy="300" rx="11.5" ry="12" fill="#1B1B1F"/>
<circle cx="252" cy="300" r="12" fill="#1B1B1F"/>
<circle cx="312" cy="300" r="12" fill="#1B1B1F"/>
<circle cx="372" cy="300" r="12" fill="#1B1B1F"/>
<circle cx="432" cy="300" r="12" fill="#1B1B1F"/>
<circle cx="492" cy="300" r="12" fill="#1B1B1F"/>
<circle cx="552" cy="300" r="12" fill="#1B1B1F"/>
<circle cx="192" cy="356" r="12" fill="#1B1B1F"/>
<ellipse cx="131.5" cy="356" rx="11.5" ry="12" fill="#1B1B1F"/>
<ellipse cx="71.5" cy="356" rx="11.5" ry="12" fill="#1B1B1F"/>
<ellipse cx="11.5" cy="356" rx="11.5" ry="12" fill="#1B1B1F"/>
<circle cx="192" cy="474" r="12" fill="#1B1B1F"/>
<ellipse cx="131.5" cy="474" rx="11.5" ry="12" fill="#1B1B1F"/>
<ellipse cx="71.5" cy="474" rx="11.5" ry="12" fill="#1B1B1F"/>
<circle cx="192" cy="594" r="12" fill="#1B1B1F"/>
<circle cx="252" cy="356" r="12" fill="#1B1B1F"/>
<circle cx="252" cy="474" r="12" fill="#1B1B1F"/>
<circle cx="252" cy="594" r="12" fill="#1B1B1F"/>
<circle cx="312" cy="356" r="12" fill="#1B1B1F"/>
<circle cx="312" cy="474" r="12" fill="#1B1B1F"/>
<circle cx="312" cy="594" r="12" fill="#1B1B1F"/>
<circle cx="372" cy="356" r="12" fill="#1B1B1F"/>
<circle cx="372" cy="474" r="12" fill="#1B1B1F"/>
<circle cx="372" cy="594" r="12" fill="#1B1B1F"/>
<circle cx="432" cy="356" r="12" fill="#1B1B1F"/>
<circle cx="432" cy="474" r="12" fill="#1B1B1F"/>
<circle cx="492" cy="356" r="12" fill="#1B1B1F"/>
<circle cx="492" cy="474" r="12" fill="#1B1B1F"/>
<circle cx="552" cy="356" r="12" fill="#1B1B1F"/>
<circle cx="192" cy="412" r="12" fill="#1B1B1F"/>
<ellipse cx="131.5" cy="412" rx="11.5" ry="12" fill="#1B1B1F"/>
<ellipse cx="71.5" cy="412" rx="11.5" ry="12" fill="#1B1B1F"/>
<ellipse cx="11.5" cy="412" rx="11.5" ry="12" fill="#1B1B1F"/>
<circle cx="192" cy="530" r="12" fill="#1B1B1F"/>
<ellipse cx="131.5" cy="530" rx="11.5" ry="12" fill="#1B1B1F"/>
<circle cx="252" cy="412" r="12" fill="#1B1B1F"/>
<circle cx="252" cy="530" r="12" fill="#1B1B1F"/>
<circle cx="312" cy="412" r="12" fill="#1B1B1F"/>
<circle cx="312" cy="530" r="12" fill="#1B1B1F"/>
<circle cx="372" cy="412" r="12" fill="#1B1B1F"/>
<circle cx="372" cy="530" r="12" fill="#1B1B1F"/>
<circle cx="432" cy="412" r="12" fill="#1B1B1F"/>
<circle cx="432" cy="530" r="12" fill="#1B1B1F"/>
<circle cx="492" cy="412" r="12" fill="#1B1B1F"/>
<circle cx="552" cy="412" r="12" fill="#1B1B1F"/>
</svg>
