<svg width="468" height="468" viewBox="0 0 468 468" fill="none" xmlns="http://www.w3.org/2000/svg">
<g clip-path="url(#clip0_137_57)">
<path d="M201.728 460.265C180.83 455.576 163.049 440.774 154.708 421.119C151.039 412.473 149.586 404.353 149.866 394.051C150.665 364.443 169.886 340.172 199.028 331.963C204.397 330.451 207.924 330.103 216.094 330.28C221.758 330.405 227.997 330.855 229.959 331.284L233.524 332.066L238.141 323.613C247.569 306.352 261.934 292.961 280.292 284.318C295.437 277.189 304.893 275.238 322.262 275.661C334.427 275.958 337.242 276.32 345.04 278.59C378.714 288.397 404.484 315.639 411.982 349.36C413.86 357.803 414.44 376.647 413.049 383.999L412.099 389.02L416.82 390.198C428.652 393.15 438.716 401.712 443.692 413.057C448.613 424.276 447.313 438.606 440.438 448.932C436.929 454.202 430.16 459.989 424.568 462.501C421.701 463.788 418.648 465.191 417.781 465.619C415.836 466.58 206.785 461.4 201.728 460.265ZM419.362 453.184C425.315 450.403 431.292 444.006 433.865 437.66C439.204 424.496 432.889 408.895 419.685 402.631C416.35 401.049 413.841 400.641 406.81 400.536C402.006 400.465 398.085 400.066 398.095 399.65C398.105 399.234 399.092 395.358 400.288 391.036C403.348 379.979 403.752 362.24 401.19 351.337C395.544 327.297 379.884 306.978 358.069 295.391C348.483 290.299 339.307 287.853 326.708 287.031C308.063 285.815 294.963 288.439 280.405 296.304C263.428 305.476 248.574 322.483 242.558 339.634C241.401 342.932 240.031 345.615 239.512 345.596C238.991 345.577 235.971 344.636 232.795 343.504C223.959 340.355 208.765 340.164 199.799 343.088C190.774 346.031 184.234 349.926 177.364 356.449C167.067 366.226 161.151 379.749 160.796 394.317C160.269 415.953 171.725 435.21 190.889 444.904C201.903 450.475 198.051 450.222 311.225 452.802L415.109 455.17L419.362 453.184ZM120.661 404.011C83.204 398.003 54.5069 387.862 33.4543 373.194C24.7679 367.142 18.8314 360.464 15.5723 353.081L13.1444 347.579L16.965 200.338L20.7856 53.0974L23.0214 49.1377C28.6732 39.1283 39.4218 30.7317 56.3958 23.0675C77.8584 13.3763 102.478 7.59035 136.67 4.20111C150.751 2.80543 198.417 4.27368 212.777 6.54549C265.659 14.911 306.408 33.2481 319.026 54.3572C323.998 62.6755 323.937 59.7027 321.33 166.746L318.937 265.024L316.015 265.404C314.409 265.613 310.771 265.975 307.933 266.208C278.64 268.617 247.85 288.076 231.669 314.408L228.355 319.799L215.849 320.085C201.072 320.422 193.506 322.13 182.142 327.691C162.631 337.239 148.437 354.271 142.301 375.498C140.607 381.361 140.044 385.627 139.797 394.478L139.454 405.894L134.508 405.668C131.788 405.543 125.546 404.798 120.637 404.011L120.661 404.011ZM200.366 270.151C193.462 263.997 187.491 258.664 187.098 258.299C186.703 257.935 188.202 256.63 190.425 255.398C195.354 252.668 201.778 246.004 204.566 240.728C211.377 227.834 211.628 211.597 205.216 198.515C198.165 184.128 182.868 176.298 165.278 178.073C155.646 179.045 149.565 181.592 143.077 187.372C132.836 196.495 129.144 205.601 129.286 221.388C129.367 230.363 129.647 231.984 132.08 237.489C137.315 249.34 148.643 258.377 160.367 260.056C164.777 260.688 165.154 260.987 173.713 270.653L182.522 280.601L197.719 280.971L212.917 281.341L200.366 270.151ZM162.76 238.677C156.677 235.402 154.469 229.992 154.736 219.016C154.91 211.875 155.306 209.798 157.149 206.27C160.096 200.636 165.777 197.345 171.254 198.097C176.642 198.838 179.397 201.091 182.112 206.978C184.173 211.447 184.446 213.128 184.249 220.159C184.038 228.833 182.364 233.242 177.902 237.194C173.241 241.322 168.531 241.784 162.76 238.677ZM100.286 257.954C116.571 254.613 125.697 241.265 121.376 227.111C119.2 219.984 114.344 215.448 102.365 209.348C96.8326 206.531 91.8933 203.668 91.389 202.986C89.4144 200.318 89.4611 198.585 91.553 196.251C94.7963 192.661 101.98 192.661 111.62 196.25L118.974 198.988L118.961 189.085L118.947 179.181L114.051 177.891C106.646 175.939 90.5436 175.633 84.1646 177.324C71.3738 180.713 64.4792 188.852 64.2286 200.854C63.993 213.207 69.3927 219.197 88.7861 227.989C96.9908 231.709 97.7801 238.306 90.3068 240.699C86.8482 241.807 85.8725 241.76 80.4797 240.227C77.1862 239.29 72.2044 237.266 69.4081 235.729L64.3237 232.933L64.0628 243.648L63.8019 254.362L68.9163 255.921C71.7292 256.778 74.4301 257.63 74.9185 257.813C76.948 258.576 96.6983 258.685 100.266 257.953L100.286 257.954ZM273.536 252.799L273.765 243.396L259.436 243.047L245.109 242.698L245.861 211.803L246.613 180.908L234.972 180.624L223.33 180.341L222.348 220.639L221.367 260.937L247.337 261.57L273.307 262.202L273.536 252.799ZM208.508 89.891C231.926 87.7533 251.207 83.325 263.474 77.2674C271.533 73.2877 273.477 71.8308 276.646 67.3978C286.444 53.6897 265.606 39.1591 224.722 31.192C186.312 23.7068 135.447 23.9496 102.706 31.7746C35.149 47.9202 60.8146 81.226 147.403 89.7777C161.614 91.1812 193.721 91.241 208.508 89.891Z" fill="#00BCF2"/>
</g>
<defs>
<clipPath id="clip0_137_57">
<rect width="456.293" height="456.293" fill="white" transform="translate(11.1091) rotate(1.39508)"/>
</clipPath>
</defs>
</svg>
